<?xml version="1.0" encoding="UTF-8"?>
<svg id="Layer_2" data-name="Layer 2" xmlns="http://www.w3.org/2000/svg" width="87.01" height="15.56" viewBox="0 0 87.01 15.56">
  <g id="Layer_2-2" data-name="Layer 2">
    <g>
      <path d="M2.95,15.56c-.29,0-.55-.04-1.03-.04-.81,0-1.41,0-1.8-.04-.11-.02-.13-.07-.09-.22C1.21,11.07,3.41,4.49,4.77.4c.09-.24.13-.31.26-.31.84,0,2.35-.02,2.79-.07.22-.02.31.04.35.15,2.33,6.54,3.08,9.35,4.75,15.07.04.13.02.2-.04.22-.13.04-.33.07-.7.07-.42,0-1.01-.04-1.89-.04-.53,0-.66,0-.7-.15-.33-1.34-.51-2.13-.7-3.12-.7.02-1.54.04-2.9.04-.68,0-1.25-.02-1.91-.02-.33,1.3-.55,2.18-.81,3.15-.02.11-.07.18-.31.18ZM4.82,9.57c1.1-.02,2.24-.04,3.28-.04-.57-2.2-1.21-4.38-1.56-5.9-.4,1.45-1.08,3.54-1.72,5.94Z"/>
      <path d="M15.27,15.53c-.15,0-.2-.04-.2-.15.04-1.76.07-3.65.07-5.57,0-3.19-.07-6.47-.15-9.46,0-.13.07-.24.15-.24,1.06-.04,1.83-.07,2.97-.07.15,0,.24.04.24.4,0,.68.04,1.61.04,3.43,0,2.55-.04,7.13-.09,8.63.95.02,1.85.04,2.82.04.86,0,1.8-.02,2.93-.09.18-.02.24.04.24.15,0,1.03.02,1.58.02,2.71,0,.13-.04.2-.4.2-1.72,0-3.21-.07-3.9-.07-1.36,0-3.98.09-4.75.09Z"/>
      <path d="M26.55,15.53c-.15,0-.2-.04-.2-.15.04-1.76.07-3.65.07-5.57,0-3.19-.07-6.47-.15-9.46,0-.13.07-.24.15-.24,1.06-.04,1.83-.07,2.97-.07.15,0,.24.04.24.4,0,.68.04,1.61.04,3.43,0,2.55-.04,7.13-.09,8.63.95.02,1.85.04,2.82.04.86,0,1.8-.02,2.93-.09.18-.02.24.04.24.15,0,1.03.02,1.58.02,2.71,0,.13-.04.2-.4.2-1.72,0-3.21-.07-3.89-.07-1.36,0-3.98.09-4.75.09Z"/>
      <path d="M35.86,9.29c-.09,0-.13-.07-.13-.48,0-.66.09-1.98.09-2.22,0-.07.02-.11.09-.11,2.51-.04,3.89-.09,4.55-.09.04,0,.07.02.09.07.07.2.11,1.01.11,1.76,0,.35-.02.66-.02.9,0,.11-.04.13-.11.13-1.61.02-4.14.04-4.66.04Z"/>
      <path d="M52.51,1.65c0,.53-.02.97-.07,1.25-.02.11-.13.15-1.28.15s-2.24-.09-3.12-.09c-.02,1.83-.07,4.09-.07,6.34,0,2.09.04,4.2.18,6.05,0,.09-.02.13-.09.13-.73.04-2.42.07-3.21.07-.04,0-.07-.02-.07-.07,0-1.17.02-2.33.02-3.52,0-2.93-.04-5.9-.11-8.98-1.47.09-2.79-.02-3.92.04-.09,0-.11-.02-.11-.11s.04-.53.04-.99c0-.64-.04-1.28-.04-1.74,0-.13.04-.2.18-.2,1.17,0,3.28.09,5.46.09,2.6,0,4.49.09,6.1.09.07,0,.09.02.09.11,0,.11.02.73.02,1.36Z"/>
      <path d="M56.28.09c.51,0,.97-.02,1.47-.02.13,0,.2.02.2.09.02,1.39-.02,2.73-.02,4.93,0,3.06.04,7.79.07,10.28,0,.11-.09.15-.46.15-.81,0-1.83-.04-2.79-.07-.09,0-.13-.04-.13-.13,0-1.34.09-3.61.09-7.17,0-2.16-.02-3.63-.18-7.99,0-.07.04-.11.13-.11.2,0,1.06.04,1.63.04Z"/>
      <path d="M64.33,15.51c-.2,0-.73-.04-1.28-.04-.51,0-1.1.02-1.58.02-.13,0-.2-.02-.2-.07,0-5.46.09-9.97.11-15.14,0-.13.04-.22.26-.22.33,0,1.45-.04,2.51-.04.51,0,.55.02.66.15.31.37,1.56,2.99,2.82,5.19,1.19-2.11,2.27-4.2,2.79-5.06.11-.15.15-.2.37-.22.35-.02,1.87-.04,3.08-.04.11,0,.13.09.13.15-.2,5.39,0,13.82,0,15.18,0,.07-.07.11-.11.11-.64-.02-2.35.04-2.97,0-.11,0-.18-.04-.18-.15.07-3.34.04-5.41.15-10.21-1.06,1.69-2.18,3.83-3.15,5.54-.11.2-.22.2-.35,0-.92-1.43-2-3.5-3.08-5.39.02,3.1,0,6.58.13,10.14,0,.04-.04.09-.13.09Z"/>
      <path d="M86.94.18c.13.95.02,2.38.02,2.75,0,.07-.04.11-.11.11-1.96.02-4.53.02-6.31-.02.02.75.02,2.05-.04,3.19.15.04.99.07,1.45.07,1.21,0,2.44.04,3.45.04.75,0,1.1-.04,1.25-.04s.2.07.22.44.11,1.67.11,2.29c0,.18-.07.24-.2.24-2.02,0-4.22-.2-6.38-.13.09.64.04,2.4.02,3.43.84,0,2.53.07,3.85.07,1.45,0,1.85-.07,2.24-.07.2,0,.26.04.29.22.04.29.07.62.07,1.17,0,.51.02.86.02,1.23,0,.2-.04.26-.33.29-.97.09-2.95-.02-3.61-.02-2.2,0-3.54.02-5.57.02-.18,0-.22-.13-.22-.33,0-3.54.15-8.01.15-11.18,0-2.35-.04-3.26-.04-3.59,0-.13.02-.24.13-.26.15-.02,2.77.02,4.47.02,3.67,0,4.55-.07,4.86-.07.11,0,.18.02.2.13Z"/>
    </g>
  </g>
</svg>