<?xml version="1.0" encoding="UTF-8"?>
<svg id="Layer_2" data-name="Layer 2" xmlns="http://www.w3.org/2000/svg" width="55.59" height="15.56" viewBox="0 0 55.59 15.56">
  <g id="Layer_2-2" data-name="Layer 2">
    <g>
      <path d="M0,15.19C.13,10.72.15,3.72.04.25.04.09.2.03.57.03,1.52.03,3.01.16,5.85.16c.88,0,1.74-.02,2.16-.02.29,0,.46.09.66.22,2.42,1.76,3.17,3.48,3.17,7.17s-1.03,6.47-2.99,7.88c-.15.11-.24.15-.48.15-.95,0-3.34-.07-7.79-.18-.51-.02-.57-.09-.57-.2ZM3.37,12.72c.77-.07,1.56-.09,2.38-.09.97,0,1.83.04,2.75.04-.18-2.79-.11-6.78-.04-9.77-.26.04-1.21.13-2.2.13-1.17,0-2.31-.02-2.95-.04.02,2.44-.04,6.91.07,9.73Z"/>
      <path d="M16.08,15.54c-.29,0-.55-.04-1.03-.04-.81,0-1.41,0-1.8-.04-.11-.02-.13-.07-.09-.22,1.19-4.18,3.39-10.76,4.75-14.85.09-.24.13-.31.26-.31.84,0,2.35-.02,2.79-.07.22-.02.31.04.35.15,2.33,6.54,3.08,9.35,4.75,15.07.04.13.02.2-.04.22-.13.04-.33.07-.7.07-.42,0-1.01-.04-1.89-.04-.53,0-.66,0-.7-.15-.33-1.34-.51-2.13-.7-3.12-.7.02-1.54.04-2.9.04-.68,0-1.25-.02-1.91-.02-.33,1.3-.55,2.18-.81,3.15-.02.11-.07.18-.31.18ZM17.95,9.55c1.1-.02,2.24-.04,3.28-.04-.57-2.2-1.21-4.38-1.56-5.9-.4,1.45-1.08,3.54-1.72,5.94Z"/>
      <path d="M29.92.07c.51,0,.97-.02,1.47-.02.13,0,.2.02.2.09.02,1.39-.02,2.73-.02,4.93,0,3.06.04,7.79.07,10.28,0,.11-.09.15-.46.15-.81,0-1.83-.04-2.79-.07-.09,0-.13-.04-.13-.13,0-1.34.09-3.61.09-7.17,0-2.16-.02-3.63-.18-7.99,0-.07.04-.11.13-.11.2,0,1.06.04,1.63.04Z"/>
      <path d="M35.16,15.52c-.15,0-.2-.04-.2-.15.04-1.76.07-3.65.07-5.57,0-3.19-.07-6.47-.15-9.46,0-.13.07-.24.15-.24,1.06-.04,1.83-.07,2.97-.07.15,0,.24.04.24.4,0,.68.04,1.61.04,3.43,0,2.55-.04,7.13-.09,8.63.95.02,1.85.04,2.82.04.86,0,1.8-.02,2.93-.09.18-.02.24.04.24.15,0,1.03.02,1.58.02,2.71,0,.13-.04.2-.4.2-1.72,0-3.21-.07-3.89-.07-1.36,0-3.98.09-4.75.09Z"/>
      <path d="M51.08,15.54c-.79,0-2.44-.02-3.15-.07-.09,0-.11-.04-.11-.13.09-1.63.09-2.62.09-3.46,0-1.03-.04-1.76-.07-2.99-1.28-2.33-3.28-6.42-4.42-8.65-.07-.11-.04-.22.09-.22.31,0,.64-.02.9-.02.79,0,1.47.07,2.18.07.2,0,.26.09.33.22,1.14,2.27,1.83,3.83,2.64,5.7.75-1.89,1.45-3.37,2.62-5.59.11-.2.22-.26.48-.26.86,0,1.69-.04,2.79-.04.13,0,.18.09.04.33-1.36,2.55-2.97,5.85-4.4,8.36-.04,1.56-.04,2.42-.02,3.17.02.73.07,1.76.07,3.52,0,.04-.02.07-.07.07Z"/>
    </g>
  </g>
</svg>