<?xml version="1.0" encoding="UTF-8"?>
<svg id="Layer_2" data-name="Layer 2" xmlns="http://www.w3.org/2000/svg" width="29" height="29" viewBox="0 0 29 29">
  <defs>
    <style>
      .cls-1 {
        fill: #fff;
      }
    </style>
  </defs>
  <g id="Layer_1-2" data-name="Layer 1">
    <g>
      <polygon class="cls-1" points="8.6 17 9.5 21.5 9.74 21.5 10 21.5 10.75 21.5 11 21.5 11 21 11 17 11 16.5 8.5 16.5 8.6 17"/>
      <polygon class="cls-1" points="18 17 18 21 18 21.5 18.25 21.5 19 21.5 19.26 21.5 19.5 21.5 20.4 17 20.5 16.5 18 16.5 18 17"/>
      <polygon class="cls-1" points="11.5 16.5 11.5 17 11.5 21 11.5 21.5 13 21.5 14 21.5 14.33 21.5 14.33 21 14.33 17 14.33 16.5 14 16.5 11.5 16.5"/>
      <polygon class="cls-1" points="8.94 14.5 8.5 14.5 8.5 16 9 16 20 16 20.5 16 20.5 14.5 20 14.5 8.94 14.5"/>
      <polygon class="cls-1" points="10.31 14 19 14 19.5 14 20 14 20 13.19 18 12.19 18 11.19 15.62 10 14.29 10 13.29 11 12.29 11 11.29 12 10.19 12 9.19 14 9.75 14 10.31 14"/>
      <polygon class="cls-1" points="14.67 16.5 14.67 17 14.67 21 14.67 21.5 15 21.5 16 21.5 17.5 21.5 17.5 21 17.5 17 17.5 16.5 15 16.5 14.67 16.5"/>
      <path class="cls-1" d="M0,0v25h8.87l-.25,1h-.12c-.28,0-.5.22-.5.5,0,.23.16.42.37.47h0s-.25,1.03-.25,1.03h-.62c-.28,0-.5.22-.5.5s.22.5.5.5h14c.28,0,.5-.22.5-.5s-.22-.5-.5-.5h-.61l-.26-1.02h0c.21-.06.37-.25.37-.48,0-.28-.22-.5-.5-.5h-.11l-.25-1h8.86V0H0ZM19.39,22h-.39v2h-.5v-2h-2v2h-4v-2h-2v2h-.5v-2h-.38l-.5,2h-4.12v-9.5c0-5.24,4.26-9.5,9.5-9.5s9.5,4.26,9.5,9.5v9.5h-4.11l-.5-2ZM14.5,4c-5.79,0-10.5,4.71-10.5,10.5v9.5h-1.5v-9.5C2.5,7.87,7.87,2.5,14.5,2.5c3.32,0,6.32,1.34,8.49,3.51s3.51,5.17,3.51,8.49v9.5h-1.5v-9.5c0-5.79-4.71-10.5-10.5-10.5ZM9.14,28l.25-1h10.23l.25,1h-10.73ZM19.37,26h-9.73l.25-1h9.23l.25,1Z"/>
    </g>
  </g>
</svg>