<?xml version="1.0" encoding="UTF-8"?>
<svg id="Layer_2" data-name="Layer 2" xmlns="http://www.w3.org/2000/svg" width="712.98" height="19.85" viewBox="0 0 712.98 19.85">
  <defs>
    <style>
      .cls-1 {
        fill: #fff;
      }
    </style>
  </defs>
  <g id="Layer_2-2" data-name="Layer 2">
    <g>
      <path class="cls-1" d="M3.75,19.8c-.36,0-.7-.06-1.32-.06-1.04,0-1.79,0-2.3-.06-.14-.03-.17-.08-.11-.28C1.54,14.08,4.34,5.71,6.08.5c.11-.31.17-.39.34-.39,1.06,0,3-.03,3.56-.08.28-.03.39.06.45.2,2.97,8.32,3.92,11.9,6.05,19.18.06.17.03.25-.06.28-.17.06-.42.08-.9.08-.53,0-1.29-.06-2.41-.06-.67,0-.84,0-.9-.2-.42-1.71-.64-2.72-.9-3.98-.9.03-1.96.06-3.7.06-.87,0-1.6-.03-2.44-.03-.42,1.65-.7,2.77-1.04,4-.03.14-.08.22-.39.22ZM6.13,12.18c1.4-.03,2.86-.06,4.17-.06-.73-2.8-1.54-5.57-1.99-7.5-.5,1.85-1.37,4.51-2.18,7.56Z"/>
      <path class="cls-1" d="M37.04,19.52c.08-2.91.14-6.02.2-8.01-1.9.08-4.82.14-6.38.08.06,2.94.06,6.08.06,7.95,0,.14-.03.2-.14.2s-.84-.03-1.06-.03c-.95,0-2.49.11-2.8.11-.08,0-.11-.03-.11-.11,0-.34.03-.73.03-1.29,0-3.78-.06-8.62-.06-14.06,0-1.37-.08-3.16-.08-3.92,0-.2.03-.25.2-.28.34-.03,1.23,0,1.96,0s1.37,0,1.9.06c.25.03.31.06.31.25,0,1.06-.11,5.88-.17,7.39,1.62,0,4.87-.08,6.41-.06-.03-1.2-.06-3.75-.06-7.36,0-.2.03-.31.39-.31.84,0,2.35-.06,3.64-.08.2,0,.25.06.25.28,0,.28-.14,3.72-.14,10.75,0,2.58,0,5.29.08,8.4,0,.17-.08.22-.25.22-.62,0-1.26-.03-1.9-.03-.7,0-1.85.06-2.04.06-.17,0-.22-.06-.22-.22Z"/>
      <path class="cls-1" d="M48.66.11c.64,0,1.23-.03,1.88-.03.17,0,.25.03.25.11.03,1.76-.03,3.47-.03,6.27,0,3.89.06,9.91.08,13.08,0,.14-.11.2-.59.2-1.04,0-2.32-.06-3.56-.08-.11,0-.17-.06-.17-.17,0-1.71.11-4.59.11-9.13,0-2.74-.03-4.62-.22-10.16,0-.08.06-.14.17-.14.25,0,1.34.06,2.07.06Z"/>
      <path class="cls-1" d="M55.3,10.08c-.03-3.5.17-6.86,3.61-9.77.11-.11.25-.17.48-.17,1.09-.03,3.08-.08,4.68-.08,1.79,0,2.18.03,2.66.31,2.32,1.37,2.91,3.36,3,6.55,0,.2-.14.22-.25.22-1.32,0-2.35-.06-3.72-.06-.08,0-.14-.06-.17-.14-.11-.5-.17-1.85-.11-3.19-.92.06-1.88.08-2.88.08s-2.04-.03-3.14-.08c.03,1.43.06,2.83.06,4.59,0,1.32.06,2.77.06,3.95s-.03,2.38-.11,3.81c1.04-.06,1.99-.08,2.94-.08,1.06,0,2.16.03,3.44.03-.06-.92-.11-2.32-.08-3.25-.7-.06-2.8.08-3.19.08-.06,0-.08-.06-.08-.11,0-.45.08-2.21.06-3.28,0-.17.03-.25.14-.25,2.21.08,4.4.06,6.78.03.14,0,.2.06.22.22.06.56.17,2.02.17,3.33,0,2.77-.56,5.1-2.94,6.61-.17.11-.39.2-.56.2-1.76.08-5.1.14-7.34.11-.08,0-.34-.08-.42-.14-2.72-2.52-3.25-5.54-3.28-9.52Z"/>
      <path class="cls-1" d="M84.5,19.52c.08-2.91.14-6.02.2-8.01-1.9.08-4.82.14-6.38.08.06,2.94.06,6.08.06,7.95,0,.14-.03.2-.14.2s-.84-.03-1.06-.03c-.95,0-2.49.11-2.8.11-.08,0-.11-.03-.11-.11,0-.34.03-.73.03-1.29,0-3.78-.06-8.62-.06-14.06,0-1.37-.08-3.16-.08-3.92,0-.2.03-.25.2-.28.34-.03,1.23,0,1.96,0s1.37,0,1.9.06c.25.03.31.06.31.25,0,1.06-.11,5.88-.17,7.39,1.62,0,4.87-.08,6.41-.06-.03-1.2-.06-3.75-.06-7.36,0-.2.03-.31.39-.31.84,0,2.35-.06,3.64-.08.2,0,.25.06.25.28,0,.28-.14,3.72-.14,10.75,0,2.58,0,5.29.08,8.4,0,.17-.08.22-.25.22-.62,0-1.26-.03-1.9-.03-.7,0-1.85.06-2.04.06-.17,0-.22-.06-.22-.22Z"/>
      <path class="cls-1" d="M93.21,11.82c-.11,0-.17-.08-.17-.62,0-.84.11-2.52.11-2.83,0-.08.03-.14.11-.14,3.19-.06,4.96-.11,5.8-.11.06,0,.08.03.11.08.08.25.14,1.29.14,2.24,0,.45-.03.84-.03,1.15,0,.14-.06.17-.14.17-2.04.03-5.26.06-5.94.06Z"/>
      <path class="cls-1" d="M117.12,11.26c.11.34.2.9.2,1.48,0,2.52-.42,4.56-1.71,5.99-.76.84-1.01,1.01-1.71,1.01-.36,0-.95-.03-1.71-.03-3.33,0-4.26.11-5.4.11-.48,0-.7-.03-1.15-.31-1.93-1.23-3-4.06-3-6.02,0-.53.06-.64.2-.64.39,0,.92.11,2.66.11.59,0,1.06-.03,1.32-.03.14,0,.17.06.17.17-.06.87.03,2.1.08,3.05,2.16-.06,3.64-.11,5.8.06-.03-.73,0-2.3.11-3.11-2.69-1.01-5.4-1.62-8.9-3.11-.78-.34-.84-.45-1.01-.81-.22-.5-.34-1.32-.34-2.35,0-2.77,1.68-5.82,3.16-6.61.25-.14.42-.17.62-.17.9,0,2.04.08,3.42.08,1.88,0,3.16-.11,3.64-.11.31,0,.73.14,1.12.39,2.13,1.34,2.6,5.18,2.6,6.5,0,.22-.08.31-.31.31-1.09,0-2.58-.14-3.86-.17-.08,0-.17-.06-.17-.14-.06-.7-.08-2.3-.03-3.16-.42.03-1.15.06-1.96.06-1.54,0-3.19-.06-3.98-.17-.03.92-.03,2.46-.08,3.39,2.72.84,7.25,2.41,9.3,3.16.53.2.67.34.92,1.06Z"/>
      <path class="cls-1" d="M125.16,19.82c-.53.08-1.15-.03-1.74-.03-.7,0-1.46.08-2.02,0-.06,0-.08-.03-.08-.08.17-4,.31-8.57.31-13.19,0-2.02-.03-4-.08-5.99,0-.17.03-.31.22-.31.87-.06,2.44-.14,5.66-.14,1.54,0,3.75.03,4.87.11.62.06.78.14,1.01.31,1.26.78,2.6,3,2.6,6.02,0,3.75-1.43,5.21-3.08,6.16-.28.17-.73.28-1.09.28-3.72.06-5.52.06-6.08.03-.08,2.16-.14,3.16-.06,6.55,0,.11-.11.22-.45.28ZM125.75,9.52c.92-.06,1.96-.11,3.02-.11.95,0,1.9.06,2.77.14-.03-.5-.06-1.23-.06-1.93,0-1.46.08-3,.17-3.89-.25,0-.73.03-1.29.03-1.51,0-4.09-.08-4.68-.14.03,1.01.11,4.31.06,5.91Z"/>
      <path class="cls-1" d="M152.15.22c.17,1.2.03,3.02.03,3.5,0,.08-.06.14-.14.14-2.49.03-5.77.03-8.04-.03.03.95.03,2.6-.06,4.06.2.06,1.26.08,1.85.08,1.54,0,3.11.06,4.4.06.95,0,1.4-.06,1.6-.06s.25.08.28.56.14,2.13.14,2.91c0,.22-.08.31-.25.31-2.58,0-5.38-.25-8.12-.17.11.81.06,3.05.03,4.37,1.06,0,3.22.08,4.9.08,1.85,0,2.35-.08,2.86-.08.25,0,.34.06.36.28.06.36.08.78.08,1.48,0,.64.03,1.09.03,1.57,0,.25-.06.34-.42.36-1.23.11-3.75-.03-4.59-.03-2.8,0-4.51.03-7.08.03-.22,0-.28-.17-.28-.42,0-4.51.2-10.19.2-14.22,0-3-.06-4.14-.06-4.56,0-.17.03-.31.17-.34.2-.03,3.53.03,5.68.03,4.68,0,5.8-.08,6.19-.08.14,0,.22.03.25.17Z"/>
      <path class="cls-1" d="M169.2.22c.17,1.2.03,3.02.03,3.5,0,.08-.06.14-.14.14-2.49.03-5.77.03-8.04-.03.03.95.03,2.6-.06,4.06.2.06,1.26.08,1.85.08,1.54,0,3.11.06,4.4.06.95,0,1.4-.06,1.6-.06s.25.08.28.56.14,2.13.14,2.91c0,.22-.08.31-.25.31-2.58,0-5.38-.25-8.12-.17.11.81.06,3.05.03,4.37,1.06,0,3.22.08,4.9.08,1.85,0,2.35-.08,2.86-.08.25,0,.34.06.36.28.06.36.08.78.08,1.48,0,.64.03,1.09.03,1.57,0,.25-.06.34-.42.36-1.23.11-3.75-.03-4.59-.03-2.8,0-4.51.03-7.08.03-.22,0-.28-.17-.28-.42,0-4.51.2-10.19.2-14.22,0-3-.06-4.14-.06-4.56,0-.17.03-.31.17-.34.2-.03,3.53.03,5.68.03,4.68,0,5.8-.08,6.19-.08.14,0,.22.03.25.17Z"/>
      <path class="cls-1" d="M173.88,19.35c.17-5.68.2-14.59.06-19.01,0-.2.2-.28.67-.28,1.2,0,3.11.17,6.72.17,1.12,0,2.21-.03,2.74-.03.36,0,.59.11.84.28,3.08,2.24,4.03,4.42,4.03,9.13s-1.32,8.23-3.81,10.02c-.2.14-.31.2-.62.2-1.2,0-4.26-.08-9.91-.22-.64-.03-.73-.11-.73-.25ZM178.16,16.21c.98-.08,1.99-.11,3.02-.11,1.23,0,2.32.06,3.5.06-.22-3.56-.14-8.62-.06-12.43-.34.06-1.54.17-2.8.17-1.48,0-2.94-.03-3.75-.06.03,3.11-.06,8.79.08,12.38Z"/>
      <path class="cls-1" d="M203.75,19.82c-.53.08-1.15-.03-1.74-.03-.7,0-1.46.08-2.02,0-.06,0-.08-.03-.08-.08.17-4,.31-8.57.31-13.19,0-2.02-.03-4-.08-5.99,0-.17.03-.31.22-.31.87-.06,2.44-.14,5.66-.14,1.54,0,3.75.03,4.87.11.62.06.78.14,1.01.31,1.26.78,2.6,3,2.6,6.02,0,3.75-1.43,5.21-3.08,6.16-.28.17-.73.28-1.09.28-3.72.06-5.52.06-6.08.03-.08,2.16-.14,3.16-.06,6.55,0,.11-.11.22-.45.28ZM204.34,9.52c.92-.06,1.96-.11,3.02-.11.95,0,1.9.06,2.77.14-.03-.5-.06-1.23-.06-1.93,0-1.46.08-3,.17-3.89-.25,0-.73.03-1.29.03-1.51,0-4.09-.08-4.68-.14.03,1.01.11,4.31.06,5.91Z"/>
      <path class="cls-1" d="M219.12,19.8c-.36,0-.7-.06-1.32-.06-1.04,0-1.79,0-2.3-.06-.14-.03-.17-.08-.11-.28,1.51-5.32,4.31-13.69,6.05-18.9.11-.31.17-.39.34-.39,1.06,0,3-.03,3.56-.08.28-.03.39.06.45.2,2.97,8.32,3.92,11.9,6.05,19.18.06.17.03.25-.06.28-.17.06-.42.08-.9.08-.53,0-1.29-.06-2.41-.06-.67,0-.84,0-.9-.2-.42-1.71-.64-2.72-.9-3.98-.9.03-1.96.06-3.7.06-.87,0-1.6-.03-2.44-.03-.42,1.65-.7,2.77-1.04,4-.03.14-.08.22-.39.22ZM221.5,12.18c1.4-.03,2.86-.06,4.17-.06-.73-2.8-1.54-5.57-1.99-7.5-.5,1.85-1.37,4.51-2.18,7.56Z"/>
      <path class="cls-1" d="M238.33.11c.78-.06,1.88-.06,3.25-.06,1.76,0,3.08-.06,3.67-.06.2,0,.53.06.92.28,2.69,1.34,3,4.84,3,7.22,0,.2-.17.25-.42.25-1.04,0-2.21.06-3.47.06-.14,0-.22-.06-.22-.17-.03-.84,0-2.63.08-3.95-1.26.03-2.44.06-3.56.06-.95,0-1.88-.03-2.91-.08.06,1.82.08,3.67.08,5.54,0,2.3-.06,4.59-.14,6.78.92-.06,2.35-.11,3.78-.11.98,0,1.96.03,2.8.11-.06-1.01-.03-2.58-.03-3.78,0-.08.08-.14.17-.17,1.34,0,2.41.03,3.75.03.17,0,.25.06.25.2,0,3.19-.87,5.49-3.25,7.25-.2.14-.39.22-.64.22-2.41.03-5.4-.06-6.89-.03-.39,0-.53-.06-.78-.25-3.14-2.63-3.36-5.52-3.36-9.6s.76-7.22,3-9.35c.28-.25.42-.36.92-.39Z"/>
      <path class="cls-1" d="M266.44,19.82c-.87,0-1.76-.06-2.55-.06-.17,0-.31-.06-.39-.22-1.06-2.66-2.58-5.71-3.86-8.76-.67.95-1.29,1.79-2.04,2.74-.06,3.58.03,4.93.08,6.02,0,.11-.03.17-.11.17-.92.06-3.08.06-4.09.06-.06,0-.08-.03-.08-.08,0-5.94.31-12.85.17-19.26,0-.22.03-.31.22-.31,1.2-.06,2.41-.08,3.72,0,.25.03.28.06.28.53,0,1.32,0,3.19-.08,7.39,2.27-3.11,3.81-5.21,5.32-7.53.17-.25.31-.42.56-.42,1.32,0,2.74-.06,4,0,.45.03.48.11.36.28-.87,1.29-3.28,4.26-5.49,7.17,2.21,4.59,4.59,9.55,5.54,12.01.06.14.06.2-.14.22-.48.03-.95.06-1.43.06Z"/>
      <path class="cls-1" d="M273.64,19.8c-.36,0-.7-.06-1.32-.06-1.04,0-1.79,0-2.3-.06-.14-.03-.17-.08-.11-.28,1.51-5.32,4.31-13.69,6.05-18.9.11-.31.17-.39.34-.39,1.06,0,3-.03,3.56-.08.28-.03.39.06.45.2,2.97,8.32,3.92,11.9,6.05,19.18.06.17.03.25-.06.28-.17.06-.42.08-.9.08-.53,0-1.29-.06-2.41-.06-.67,0-.84,0-.9-.2-.42-1.71-.64-2.72-.9-3.98-.9.03-1.96.06-3.7.06-.87,0-1.6-.03-2.44-.03-.42,1.65-.7,2.77-1.04,4-.03.14-.08.22-.39.22ZM276.02,12.18c1.4-.03,2.86-.06,4.17-.06-.73-2.8-1.54-5.57-1.99-7.5-.5,1.85-1.37,4.51-2.18,7.56Z"/>
      <path class="cls-1" d="M288.87,10.08c-.03-3.5.17-6.86,3.61-9.77.11-.11.25-.17.48-.17,1.09-.03,3.08-.08,4.68-.08,1.79,0,2.18.03,2.66.31,2.32,1.37,2.91,3.36,3,6.55,0,.2-.14.22-.25.22-1.32,0-2.35-.06-3.72-.06-.08,0-.14-.06-.17-.14-.11-.5-.17-1.85-.11-3.19-.92.06-1.88.08-2.88.08s-2.04-.03-3.14-.08c.03,1.43.06,2.83.06,4.59,0,1.32.06,2.77.06,3.95s-.03,2.38-.11,3.81c1.04-.06,1.99-.08,2.94-.08,1.06,0,2.16.03,3.44.03-.06-.92-.11-2.32-.08-3.25-.7-.06-2.8.08-3.19.08-.06,0-.08-.06-.08-.11,0-.45.08-2.21.06-3.28,0-.17.03-.25.14-.25,2.21.08,4.4.06,6.78.03.14,0,.2.06.22.22.06.56.17,2.02.17,3.33,0,2.77-.56,5.1-2.94,6.61-.17.11-.39.2-.56.2-1.76.08-5.1.14-7.34.11-.08,0-.34-.08-.42-.14-2.72-2.52-3.25-5.54-3.28-9.52Z"/>
      <path class="cls-1" d="M309.98.11c.64,0,1.23-.03,1.88-.03.17,0,.25.03.25.11.03,1.76-.03,3.47-.03,6.27,0,3.89.06,9.91.08,13.08,0,.14-.11.2-.59.2-1.04,0-2.32-.06-3.56-.08-.11,0-.17-.06-.17-.17,0-1.71.11-4.59.11-9.13,0-2.74-.03-4.62-.22-10.16,0-.08.06-.14.17-.14.25,0,1.34.06,2.07.06Z"/>
      <path class="cls-1" d="M319.31,19.77c-.76,0-1.57,0-2.07-.06-.11,0-.14-.08-.14-.28.31-8.15,0-15.29.36-18.98.03-.31.08-.34.67-.34,1.01,0,2.38.08,3.25.08.25,0,.39.08.5.28.62,1.06,2.94,6.08,5.96,12.24-.11-6.69-.25-11.37-.25-12.32,0-.22.03-.28.22-.28.39-.03,1.32-.06,2.16-.06.64,0,1.15.03,1.51.06.14,0,.17.11.17.31,0,2.69-.06,11.34.03,19.07,0,.11-.08.17-.28.17-.92,0-3.02.08-3.95.08-.17,0-.25-.08-.34-.25-1.48-2.83-4.2-7.98-6.02-11.84.06,2.72.06,4.4.08,5.6.03,1.57.03,5.07.03,6.27,0,.14-.06.17-.25.2-.25.03-.81.06-1.65.06Z"/>
      <path class="cls-1" d="M336.08,10.08c-.03-3.5.17-6.86,3.61-9.77.11-.11.25-.17.48-.17,1.09-.03,3.08-.08,4.68-.08,1.79,0,2.18.03,2.66.31,2.32,1.37,2.91,3.36,3,6.55,0,.2-.14.22-.25.22-1.32,0-2.35-.06-3.72-.06-.08,0-.14-.06-.17-.14-.11-.5-.17-1.85-.11-3.19-.92.06-1.88.08-2.88.08s-2.04-.03-3.14-.08c.03,1.43.06,2.83.06,4.59,0,1.32.06,2.77.06,3.95s-.03,2.38-.11,3.81c1.04-.06,1.99-.08,2.94-.08,1.06,0,2.16.03,3.44.03-.06-.92-.11-2.32-.08-3.25-.7-.06-2.8.08-3.19.08-.06,0-.08-.06-.08-.11,0-.45.08-2.21.06-3.28,0-.17.03-.25.14-.25,2.21.08,4.4.06,6.78.03.14,0,.2.06.22.22.06.56.17,2.02.17,3.33,0,2.77-.56,5.1-2.94,6.61-.17.11-.39.2-.56.2-1.76.08-5.1.14-7.34.11-.08,0-.34-.08-.42-.14-2.72-2.52-3.25-5.54-3.28-9.52Z"/>
      <path class="cls-1" d="M375.47,2.1c0,.67-.03,1.23-.08,1.6-.03.14-.17.2-1.62.2s-2.86-.11-3.98-.11c-.03,2.32-.08,5.21-.08,8.06,0,2.66.06,5.35.22,7.7,0,.11-.03.17-.11.17-.92.06-3.08.08-4.09.08-.06,0-.08-.03-.08-.08,0-1.48.03-2.97.03-4.48,0-3.72-.06-7.5-.14-11.42-1.88.11-3.56-.03-4.98.06-.11,0-.14-.03-.14-.14s.06-.67.06-1.26c0-.81-.06-1.62-.06-2.21,0-.17.06-.25.22-.25,1.48,0,4.17.11,6.94.11,3.3,0,5.71.11,7.76.11.08,0,.11.03.11.14,0,.14.03.92.03,1.74Z"/>
      <path class="cls-1" d="M391.21.22c.17,1.2.03,3.02.03,3.5,0,.08-.06.14-.14.14-2.49.03-5.77.03-8.04-.03.03.95.03,2.6-.06,4.06.2.06,1.26.08,1.85.08,1.54,0,3.11.06,4.4.06.95,0,1.4-.06,1.6-.06s.25.08.28.56c.03.48.14,2.13.14,2.91,0,.22-.08.31-.25.31-2.58,0-5.38-.25-8.12-.17.11.81.06,3.05.03,4.37,1.06,0,3.22.08,4.9.08,1.85,0,2.35-.08,2.86-.08.25,0,.34.06.36.28.06.36.08.78.08,1.48,0,.64.03,1.09.03,1.57,0,.25-.06.34-.42.36-1.23.11-3.75-.03-4.59-.03-2.8,0-4.51.03-7.08.03-.22,0-.28-.17-.28-.42,0-4.51.2-10.19.2-14.22,0-3-.06-4.14-.06-4.56,0-.17.03-.31.17-.34.2-.03,3.53.03,5.68.03,4.68,0,5.8-.08,6.19-.08.14,0,.22.03.25.17Z"/>
      <path class="cls-1" d="M405.94,19.82c-.17,0-.22-.03-.34-.2-1.06-1.79-4.14-6.27-5.52-8.37.03,1.57-.03,6.22.08,8.26,0,.11-.06.2-.34.22-.56.06-1.6.03-2.21.03-.7,0-1.15.06-1.6-.03-.14-.03-.17-.06-.17-.14,0-2.86.11-6.64.14-10.19.03-3.53,0-6.83,0-8.88,0-.17.03-.31.14-.31.45-.06,2.94-.17,6.13-.17,2.04,0,2.88.03,4.23.17.28.03.48.08.73.22,1.65.9,3.08,2.83,3.08,5.66s-1.37,4.79-4.87,6.24c1.4,2.07,4.28,5.91,5.1,7.25.11.17.03.2-.28.2-.34,0-.9-.03-1.62-.03-.62,0-1.51.06-2.69.06ZM400.11,6.83c0,.87,0,1.68-.06,2.35.81-.06,1.93-.08,3.05-.08s2.13.03,2.91.11c-.03-.53-.03-1.26-.03-2.04,0-1.26.03-2.63.11-3.5-.17-.03-.59-.06-.95-.06-1.01,0-2.38.06-3.36.06-.76,0-1.32-.03-1.74-.06.03.87.06,2.07.06,3.22Z"/>
      <path class="cls-1" d="M418.09,19.74c-.25,0-.92-.06-1.62-.06-.64,0-1.4.03-2.02.03-.17,0-.25-.03-.25-.08,0-6.94.11-12.68.14-19.26,0-.17.06-.28.34-.28.42,0,1.85-.06,3.19-.06.64,0,.7.03.84.2.39.48,1.99,3.81,3.58,6.61,1.51-2.69,2.88-5.35,3.56-6.44.14-.2.2-.25.48-.28.45-.03,2.38-.06,3.92-.06.14,0,.17.11.17.2-.25,6.86,0,17.58,0,19.32,0,.08-.08.14-.14.14-.81-.03-3,.06-3.78,0-.14,0-.22-.06-.22-.2.08-4.26.06-6.89.2-12.99-1.34,2.16-2.77,4.87-4,7.06-.14.25-.28.25-.45,0-1.18-1.82-2.55-4.45-3.92-6.86.03,3.95,0,8.37.17,12.91,0,.06-.06.11-.17.11Z"/>
      <path class="cls-1" d="M437.6.11c.64,0,1.23-.03,1.88-.03.17,0,.25.03.25.11.03,1.76-.03,3.47-.03,6.27,0,3.89.06,9.91.08,13.08,0,.14-.11.2-.59.2-1.04,0-2.32-.06-3.56-.08-.11,0-.17-.06-.17-.17,0-1.71.11-4.59.11-9.13,0-2.74-.03-4.62-.22-10.16,0-.08.06-.14.17-.14.25,0,1.34.06,2.07.06Z"/>
      <path class="cls-1" d="M446.93,19.77c-.76,0-1.57,0-2.07-.06-.11,0-.14-.08-.14-.28.31-8.15,0-15.29.36-18.98.03-.31.08-.34.67-.34,1.01,0,2.38.08,3.25.08.25,0,.39.08.5.28.62,1.06,2.94,6.08,5.96,12.24-.11-6.69-.25-11.37-.25-12.32,0-.22.03-.28.22-.28.39-.03,1.32-.06,2.16-.06.64,0,1.15.03,1.51.06.14,0,.17.11.17.31,0,2.69-.06,11.34.03,19.07,0,.11-.08.17-.28.17-.92,0-3.02.08-3.95.08-.17,0-.25-.08-.34-.25-1.48-2.83-4.2-7.98-6.02-11.84.06,2.72.06,4.4.08,5.6.03,1.57.03,5.07.03,6.27,0,.14-.06.17-.25.2-.25.03-.81.06-1.65.06Z"/>
      <path class="cls-1" d="M467.7.06c2.3,0,4.45.08,7.25.14.31,0,.42.06.7.25,2.72,1.9,3.33,4.76,3.33,9.77,0,4.37-.81,7.56-3.33,9.38-.22.14-.36.17-1.68.17s-2.94-.06-4.42-.06c-1.37,0-2.18.08-2.38.08s-.25-.06-.45-.22c-2.32-2.07-2.97-5.32-2.97-9.49,0-5.38.98-7.62,3.5-9.83.17-.14.28-.2.45-.2ZM471.37,16.04c1.2,0,2.38.03,3.44.06-.08-1.82-.11-3.72-.11-5.63,0-2.38.08-4.79.17-6.75-.64.03-1.48.06-2.3.06-1.74,0-3.58-.06-4.68-.14.03,1.43.11,4.76.11,6.52,0,2.66-.11,3.89-.17,5.96,1.12-.06,2.32-.08,3.53-.08Z"/>
      <path class="cls-1" d="M483.75,19.77c-.2,0-.25-.06-.25-.2.06-2.24.08-4.65.08-7.08,0-4.06-.08-8.23-.2-12.04,0-.17.08-.31.2-.31,1.34-.06,2.32-.08,3.78-.08.2,0,.31.06.31.5,0,.87.06,2.04.06,4.37,0,3.25-.06,9.07-.11,10.98,1.2.03,2.35.06,3.58.06,1.09,0,2.3-.03,3.72-.11.22-.03.31.06.31.2,0,1.32.03,2.02.03,3.44,0,.17-.06.25-.5.25-2.18,0-4.09-.08-4.96-.08-1.74,0-5.07.11-6.05.11Z"/>
      <path class="cls-1" d="M501.67.06c2.3,0,4.45.08,7.25.14.31,0,.42.06.7.25,2.72,1.9,3.33,4.76,3.33,9.77,0,4.37-.81,7.56-3.33,9.38-.22.14-.36.17-1.68.17s-2.94-.06-4.42-.06c-1.37,0-2.18.08-2.38.08s-.25-.06-.45-.22c-2.32-2.07-2.97-5.32-2.97-9.49,0-5.38.98-7.62,3.5-9.83.17-.14.28-.2.45-.2ZM505.34,16.04c1.2,0,2.38.03,3.44.06-.08-1.82-.11-3.72-.11-5.63,0-2.38.08-4.79.17-6.75-.64.03-1.48.06-2.3.06-1.74,0-3.58-.06-4.68-.14.03,1.43.11,4.76.11,6.52,0,2.66-.11,3.89-.17,5.96,1.12-.06,2.32-.08,3.53-.08Z"/>
      <path class="cls-1" d="M516.85,10.08c-.03-3.5.17-6.86,3.61-9.77.11-.11.25-.17.48-.17,1.09-.03,3.08-.08,4.68-.08,1.79,0,2.18.03,2.66.31,2.32,1.37,2.91,3.36,3,6.55,0,.2-.14.22-.25.22-1.32,0-2.35-.06-3.72-.06-.08,0-.14-.06-.17-.14-.11-.5-.17-1.85-.11-3.19-.92.06-1.88.08-2.88.08s-2.04-.03-3.14-.08c.03,1.43.06,2.83.06,4.59,0,1.32.06,2.77.06,3.95s-.03,2.38-.11,3.81c1.04-.06,1.99-.08,2.94-.08,1.06,0,2.16.03,3.44.03-.06-.92-.11-2.32-.08-3.25-.7-.06-2.8.08-3.19.08-.06,0-.08-.06-.08-.11,0-.45.08-2.21.06-3.28,0-.17.03-.25.14-.25,2.21.08,4.4.06,6.78.03.14,0,.2.06.22.22.06.56.17,2.02.17,3.33,0,2.77-.56,5.1-2.94,6.61-.17.11-.39.2-.56.2-1.76.08-5.1.14-7.34.11-.08,0-.34-.08-.42-.14-2.72-2.52-3.25-5.54-3.28-9.52Z"/>
      <path class="cls-1" d="M542.77,19.8c-1.01,0-3.11-.03-4-.08-.11,0-.14-.06-.14-.17.11-2.07.11-3.33.11-4.4,0-1.32-.06-2.24-.08-3.81-1.62-2.97-4.17-8.18-5.63-11-.08-.14-.06-.28.11-.28.39,0,.81-.03,1.15-.03,1.01,0,1.88.08,2.77.08.25,0,.34.11.42.28,1.46,2.88,2.32,4.87,3.36,7.25.95-2.41,1.85-4.28,3.33-7.11.14-.25.28-.34.62-.34,1.09,0,2.16-.06,3.56-.06.17,0,.22.11.06.42-1.74,3.25-3.78,7.45-5.6,10.64-.06,1.99-.06,3.08-.03,4.03.03.92.08,2.24.08,4.48,0,.06-.03.08-.08.08Z"/>
      <path class="cls-1" d="M562.01.11c.78-.06,1.88-.06,3.25-.06,1.76,0,3.08-.06,3.67-.06.2,0,.53.06.92.28,2.69,1.34,3,4.84,3,7.22,0,.2-.17.25-.42.25-1.04,0-2.21.06-3.47.06-.14,0-.22-.06-.22-.17-.03-.84,0-2.63.08-3.95-1.26.03-2.44.06-3.56.06-.95,0-1.88-.03-2.91-.08.06,1.82.08,3.67.08,5.54,0,2.3-.06,4.59-.14,6.78.92-.06,2.35-.11,3.78-.11.98,0,1.96.03,2.8.11-.06-1.01-.03-2.58-.03-3.78,0-.08.08-.14.17-.17,1.34,0,2.41.03,3.75.03.17,0,.25.06.25.2,0,3.19-.87,5.49-3.25,7.25-.2.14-.39.22-.64.22-2.41.03-5.4-.06-6.89-.03-.39,0-.53-.06-.78-.25-3.14-2.63-3.36-5.52-3.36-9.6s.76-7.22,3-9.35c.28-.25.42-.36.92-.39Z"/>
      <path class="cls-1" d="M587.46,19.52c.08-2.91.14-6.02.2-8.01-1.9.08-4.82.14-6.38.08.06,2.94.06,6.08.06,7.95,0,.14-.03.2-.14.2s-.84-.03-1.06-.03c-.95,0-2.49.11-2.8.11-.08,0-.11-.03-.11-.11,0-.34.03-.73.03-1.29,0-3.78-.06-8.62-.06-14.06,0-1.37-.08-3.16-.08-3.92,0-.2.03-.25.2-.28.34-.03,1.23,0,1.96,0s1.37,0,1.9.06c.25.03.31.06.31.25,0,1.06-.11,5.88-.17,7.39,1.62,0,4.87-.08,6.41-.06-.03-1.2-.06-3.75-.06-7.36,0-.2.03-.31.39-.31.84,0,2.35-.06,3.64-.08.2,0,.25.06.25.28,0,.28-.14,3.72-.14,10.75,0,2.58,0,5.29.08,8.4,0,.17-.08.22-.25.22-.62,0-1.26-.03-1.9-.03-.7,0-1.85.06-2.04.06-.17,0-.22-.06-.22-.22Z"/>
      <path class="cls-1" d="M599.11,19.8c-.36,0-.7-.06-1.32-.06-1.04,0-1.79,0-2.3-.06-.14-.03-.17-.08-.11-.28,1.51-5.32,4.31-13.69,6.05-18.9.11-.31.17-.39.34-.39,1.06,0,3-.03,3.56-.08.28-.03.39.06.45.2,2.97,8.32,3.92,11.9,6.05,19.18.06.17.03.25-.06.28-.17.06-.42.08-.9.08-.53,0-1.29-.06-2.41-.06-.67,0-.84,0-.9-.2-.42-1.71-.64-2.72-.9-3.98-.9.03-1.96.06-3.7.06-.87,0-1.6-.03-2.44-.03-.42,1.65-.7,2.77-1.04,4-.03.14-.08.22-.39.22ZM601.49,12.18c1.4-.03,2.86-.06,4.17-.06-.73-2.8-1.54-5.57-1.99-7.5-.5,1.85-1.37,4.51-2.18,7.56Z"/>
      <path class="cls-1" d="M615.63,19.77c-.2,0-.25-.06-.25-.2.06-2.24.08-4.65.08-7.08,0-4.06-.08-8.23-.2-12.04,0-.17.08-.31.2-.31,1.34-.06,2.32-.08,3.78-.08.2,0,.31.06.31.5,0,.87.06,2.04.06,4.37,0,3.25-.06,9.07-.11,10.98,1.2.03,2.35.06,3.58.06,1.09,0,2.3-.03,3.72-.11.22-.03.31.06.31.2,0,1.32.03,2.02.03,3.44,0,.17-.06.25-.5.25-2.18,0-4.09-.08-4.96-.08-1.74,0-5.07.11-6.05.11Z"/>
      <path class="cls-1" d="M630.83,19.77c-.2,0-.25-.06-.25-.2.06-2.24.08-4.65.08-7.08,0-4.06-.08-8.23-.2-12.04,0-.17.08-.31.2-.31,1.34-.06,2.32-.08,3.78-.08.2,0,.31.06.31.5,0,.87.06,2.04.06,4.37,0,3.25-.06,9.07-.11,10.98,1.2.03,2.35.06,3.58.06,1.09,0,2.3-.03,3.72-.11.22-.03.31.06.31.2,0,1.32.03,2.02.03,3.44,0,.17-.06.25-.5.25-2.18,0-4.09-.08-4.96-.08-1.74,0-5.07.11-6.05.11Z"/>
      <path class="cls-1" d="M658.08.22c.17,1.2.03,3.02.03,3.5,0,.08-.06.14-.14.14-2.49.03-5.77.03-8.04-.03.03.95.03,2.6-.06,4.06.2.06,1.26.08,1.85.08,1.54,0,3.11.06,4.4.06.95,0,1.4-.06,1.6-.06s.25.08.28.56.14,2.13.14,2.91c0,.22-.08.31-.25.31-2.58,0-5.38-.25-8.12-.17.11.81.06,3.05.03,4.37,1.06,0,3.22.08,4.9.08,1.85,0,2.35-.08,2.86-.08.25,0,.34.06.36.28.06.36.08.78.08,1.48,0,.64.03,1.09.03,1.57,0,.25-.06.34-.42.36-1.23.11-3.75-.03-4.59-.03-2.8,0-4.51.03-7.08.03-.22,0-.28-.17-.28-.42,0-4.51.2-10.19.2-14.22,0-3-.06-4.14-.06-4.56,0-.17.03-.31.17-.34.2-.03,3.53.03,5.68.03,4.68,0,5.8-.08,6.19-.08.14,0,.22.03.25.17Z"/>
      <path class="cls-1" d="M664.91,19.77c-.76,0-1.57,0-2.07-.06-.11,0-.14-.08-.14-.28.31-8.15,0-15.29.36-18.98.03-.31.08-.34.67-.34,1.01,0,2.38.08,3.25.08.25,0,.39.08.5.28.62,1.06,2.94,6.08,5.96,12.24-.11-6.69-.25-11.37-.25-12.32,0-.22.03-.28.22-.28.39-.03,1.32-.06,2.16-.06.64,0,1.15.03,1.51.06.14,0,.17.11.17.31,0,2.69-.06,11.34.03,19.07,0,.11-.08.17-.28.17-.92,0-3.02.08-3.95.08-.17,0-.25-.08-.34-.25-1.48-2.83-4.2-7.98-6.02-11.84.06,2.72.06,4.4.08,5.6.03,1.57.03,5.07.03,6.27,0,.14-.06.17-.25.2-.25.03-.81.06-1.65.06Z"/>
      <path class="cls-1" d="M681.68,10.08c-.03-3.5.17-6.86,3.61-9.77.11-.11.25-.17.48-.17,1.09-.03,3.08-.08,4.68-.08,1.79,0,2.18.03,2.66.31,2.32,1.37,2.91,3.36,3,6.55,0,.2-.14.22-.25.22-1.32,0-2.35-.06-3.72-.06-.08,0-.14-.06-.17-.14-.11-.5-.17-1.85-.11-3.19-.92.06-1.88.08-2.88.08s-2.04-.03-3.14-.08c.03,1.43.06,2.83.06,4.59,0,1.32.06,2.77.06,3.95s-.03,2.38-.11,3.81c1.04-.06,1.99-.08,2.94-.08,1.06,0,2.16.03,3.44.03-.06-.92-.11-2.32-.08-3.25-.7-.06-2.8.08-3.19.08-.06,0-.08-.06-.08-.11,0-.45.08-2.21.06-3.28,0-.17.03-.25.14-.25,2.21.08,4.4.06,6.78.03.14,0,.2.06.22.22.06.56.17,2.02.17,3.33,0,2.77-.56,5.1-2.94,6.61-.17.11-.39.2-.56.2-1.76.08-5.1.14-7.34.11-.08,0-.34-.08-.42-.14-2.72-2.52-3.25-5.54-3.28-9.52Z"/>
      <path class="cls-1" d="M712.9.22c.17,1.2.03,3.02.03,3.5,0,.08-.06.14-.14.14-2.49.03-5.77.03-8.04-.03.03.95.03,2.6-.06,4.06.2.06,1.26.08,1.85.08,1.54,0,3.11.06,4.4.06.95,0,1.4-.06,1.6-.06s.25.08.28.56.14,2.13.14,2.91c0,.22-.08.31-.25.31-2.58,0-5.38-.25-8.12-.17.11.81.06,3.05.03,4.37,1.06,0,3.22.08,4.9.08,1.85,0,2.35-.08,2.86-.08.25,0,.34.06.36.28.06.36.08.78.08,1.48,0,.64.03,1.09.03,1.57,0,.25-.06.34-.42.36-1.23.11-3.75-.03-4.59-.03-2.8,0-4.51.03-7.08.03-.22,0-.28-.17-.28-.42,0-4.51.2-10.19.2-14.22,0-3-.06-4.14-.06-4.56,0-.17.03-.31.17-.34.2-.03,3.53.03,5.68.03,4.68,0,5.8-.08,6.19-.08.14,0,.22.03.25.17Z"/>
    </g>
  </g>
</svg>