<?xml version="1.0" encoding="UTF-8"?>
<svg id="Layer_2" data-name="Layer 2" xmlns="http://www.w3.org/2000/svg" width="291.29" height="30.93" viewBox="0 0 291.29 30.93">
  <defs>
    <style>
      .cls-1 {
        fill: #fff;
      }
    </style>
  </defs>
  <g id="Layer_2-2" data-name="Layer 2">
    <g>
      <path class="cls-1" d="M.57,30.84c-.31,0-.39-.09-.39-.31.09-3.5.13-7.26.13-11.06C.31,13.13.17,6.61,0,.66,0,.4.13.18.31.18,2.41.1,3.94.05,6.21.05c.31,0,.48.09.48.79,0,1.36.09,3.19.09,6.82,0,5.07-.09,14.17-.17,17.14,1.88.04,3.67.09,5.6.09,1.71,0,3.59-.04,5.82-.17.35-.04.48.09.48.31,0,2.05.04,3.15.04,5.38,0,.26-.09.39-.79.39-3.41,0-6.39-.13-7.74-.13-2.71,0-7.92.18-9.45.18Z"/>
      <path class="cls-1" d="M41.81.31c.26,1.88.04,4.72.04,5.47,0,.13-.09.22-.22.22-3.89.04-9.01.04-12.55-.04.04,1.49.04,4.07-.09,6.34.31.09,1.97.13,2.89.13,2.41,0,4.85.09,6.87.09,1.49,0,2.19-.09,2.49-.09s.39.13.44.87c.04.74.22,3.32.22,4.55,0,.35-.13.48-.39.48-4.02,0-8.4-.39-12.68-.26.18,1.27.09,4.77.04,6.82,1.66,0,5.03.13,7.65.13,2.89,0,3.67-.13,4.46-.13.39,0,.52.09.57.44.09.57.13,1.22.13,2.32,0,1,.04,1.71.04,2.45,0,.39-.09.53-.66.57-1.92.18-5.86-.04-7.17-.04-4.37,0-7.04.04-11.06.04-.35,0-.44-.26-.44-.66,0-7.04.31-15.92.31-22.22,0-4.68-.09-6.47-.09-7.13,0-.26.04-.48.26-.52.31-.04,5.51.04,8.88.04,7.3,0,9.05-.13,9.66-.13.22,0,.35.04.39.26Z"/>
      <path class="cls-1" d="M51.39,30.88c-.57,0-1.09-.09-2.06-.09-1.62,0-2.8,0-3.59-.09-.22-.04-.26-.13-.17-.44,2.36-8.31,6.73-21.38,9.45-29.52.17-.48.26-.61.52-.61,1.66,0,4.68-.04,5.55-.13.44-.04.61.09.7.31,4.64,12.99,6.12,18.59,9.45,29.96.09.26.04.39-.09.44-.26.09-.66.13-1.4.13-.83,0-2.01-.09-3.76-.09-1.05,0-1.31,0-1.4-.31-.66-2.67-1.01-4.24-1.4-6.21-1.4.04-3.06.09-5.77.09-1.36,0-2.49-.04-3.8-.04-.66,2.58-1.09,4.33-1.62,6.25-.04.22-.13.35-.61.35ZM55.11,18.99c2.19-.04,4.46-.09,6.52-.09-1.14-4.37-2.4-8.7-3.1-11.72-.79,2.89-2.14,7.04-3.41,11.81Z"/>
      <path class="cls-1" d="M75.36,30.18c.26-8.88.31-22.78.09-29.69,0-.31.31-.44,1.05-.44,1.88,0,4.85.26,10.5.26,1.75,0,3.46-.04,4.29-.04.57,0,.92.18,1.31.44,4.81,3.5,6.3,6.91,6.3,14.26s-2.06,12.86-5.95,15.66c-.31.22-.48.31-.96.31-1.88,0-6.65-.13-15.48-.35-1.01-.04-1.14-.17-1.14-.39ZM82.05,25.28c1.53-.13,3.1-.17,4.72-.17,1.92,0,3.63.09,5.47.09-.35-5.55-.22-13.47-.09-19.42-.52.09-2.41.26-4.37.26-2.32,0-4.59-.04-5.86-.09.04,4.85-.09,13.73.13,19.33Z"/>
      <path class="cls-1" d="M123.73.31c.26,1.88.04,4.72.04,5.47,0,.13-.09.22-.22.22-3.89.04-9.01.04-12.55-.04.04,1.49.04,4.07-.09,6.34.31.09,1.97.13,2.89.13,2.41,0,4.85.09,6.87.09,1.49,0,2.19-.09,2.49-.09s.39.13.44.87c.04.74.22,3.32.22,4.55,0,.35-.13.48-.39.48-4.02,0-8.4-.39-12.68-.26.18,1.27.09,4.77.04,6.82,1.66,0,5.03.13,7.65.13,2.89,0,3.67-.13,4.46-.13.39,0,.52.09.57.44.09.57.13,1.22.13,2.32,0,1,.04,1.71.04,2.45,0,.39-.09.53-.66.57-1.92.18-5.86-.04-7.17-.04-4.37,0-7.04.04-11.06.04-.35,0-.44-.26-.44-.66,0-7.04.31-15.92.31-22.22,0-4.68-.09-6.47-.09-7.13,0-.26.04-.48.26-.52.31-.04,5.51.04,8.88.04,7.3,0,9.05-.13,9.66-.13.22,0,.35.04.39.26Z"/>
      <path class="cls-1" d="M145.43,30.93c-.26,0-.35-.04-.52-.31-1.66-2.8-6.47-9.8-8.62-13.08.04,2.45-.04,9.71.13,12.9,0,.17-.09.31-.52.35-.87.09-2.49.04-3.45.04-1.09,0-1.79.09-2.49-.04-.22-.04-.26-.09-.26-.22,0-4.46.17-10.36.22-15.92.04-5.51,0-10.67,0-13.86,0-.26.04-.48.22-.48.7-.09,4.59-.26,9.58-.26,3.19,0,4.5.04,6.6.26.44.04.74.13,1.14.35,2.58,1.4,4.81,4.42,4.81,8.83s-2.14,7.48-7.61,9.75c2.19,3.24,6.69,9.23,7.96,11.33.17.26.04.31-.44.31-.52,0-1.4-.04-2.54-.04-.96,0-2.36.09-4.2.09ZM136.33,10.64c0,1.36,0,2.62-.09,3.67,1.27-.09,3.02-.13,4.77-.13s3.32.04,4.55.17c-.04-.83-.04-1.97-.04-3.19,0-1.97.04-4.11.17-5.47-.26-.04-.92-.09-1.49-.09-1.57,0-3.72.09-5.25.09-1.18,0-2.06-.04-2.71-.09.04,1.36.09,3.24.09,5.03Z"/>
      <path class="cls-1" d="M174.95,15.4c3.45,2.1,4.72,3.85,4.72,6.73,0,3.8-1.75,5.86-4.37,7.78-.57.44-1.18.66-1.88.66-2.19,0-12.68.22-16.09.22-.26,0-.35-.09-.35-.31,0-1.36.22-5.51.22-15.66,0-1.84-.18-4.55-.18-8,0-1.88.04-4.02.18-5.9.04-.61.26-.74.57-.74,4.55,0,9.23.13,14.61.13.96,0,2.01.44,2.89,1.09,2.45,1.75,4.15,4.59,4.15,7.17,0,3.67-1.75,5.12-4.46,6.82ZM163.36,25.28c1.57-.13,3.5-.22,5.33-.22,1.57,0,3.1.04,4.33.18-.17-1.88-.13-4.81.04-6.87-1.4.09-2.76.13-4.02.13-1.88,0-3.76-.09-5.77-.35.17,1.53.26,4.85.09,7.13ZM163.36,12.95c1.75,0,3.85-.13,5.82-.13,1.27,0,2.49.04,3.54.17-.04-2.32,0-6.43.09-7.35-1.62.22-3.76.35-5.99.35-1.14,0-2.32-.04-3.41-.09.09,1.88.04,4.64-.04,7.04Z"/>
      <path class="cls-1" d="M190.39.05c3.59,0,6.95.13,11.33.22.48,0,.66.09,1.09.39,4.24,2.97,5.2,7.43,5.2,15.26,0,6.82-1.27,11.81-5.2,14.65-.35.22-.57.26-2.62.26s-4.59-.09-6.91-.09c-2.14,0-3.41.13-3.72.13s-.39-.09-.7-.35c-3.63-3.24-4.64-8.31-4.64-14.83,0-8.4,1.53-11.89,5.47-15.35.26-.22.44-.31.7-.31ZM196.12,25.02c1.88,0,3.72.04,5.38.09-.13-2.84-.17-5.82-.17-8.79,0-3.72.13-7.48.26-10.54-1.01.04-2.32.09-3.59.09-2.71,0-5.6-.09-7.3-.22.04,2.23.18,7.43.18,10.19,0,4.15-.18,6.08-.26,9.31,1.75-.09,3.63-.13,5.51-.13Z"/>
      <path class="cls-1" d="M216.54,30.88c-.57,0-1.09-.09-2.06-.09-1.62,0-2.8,0-3.59-.09-.22-.04-.26-.13-.17-.44,2.36-8.31,6.73-21.38,9.45-29.52.18-.48.26-.61.52-.61,1.66,0,4.68-.04,5.55-.13.44-.04.61.09.7.31,4.64,12.99,6.12,18.59,9.45,29.96.09.26.04.39-.09.44-.26.09-.66.13-1.4.13-.83,0-2.01-.09-3.76-.09-1.05,0-1.31,0-1.4-.31-.66-2.67-1.01-4.24-1.4-6.21-1.4.04-3.06.09-5.77.09-1.36,0-2.49-.04-3.8-.04-.66,2.58-1.09,4.33-1.62,6.25-.04.22-.13.35-.61.35ZM220.26,18.99c2.19-.04,4.46-.09,6.52-.09-1.14-4.37-2.41-8.7-3.1-11.72-.79,2.89-2.14,7.04-3.41,11.81Z"/>
      <path class="cls-1" d="M256.21,30.93c-.26,0-.35-.04-.52-.31-1.66-2.8-6.47-9.8-8.62-13.08.04,2.45-.04,9.71.13,12.9,0,.17-.09.31-.52.35-.87.09-2.49.04-3.45.04-1.09,0-1.79.09-2.49-.04-.22-.04-.26-.09-.26-.22,0-4.46.17-10.36.22-15.92.04-5.51,0-10.67,0-13.86,0-.26.04-.48.22-.48.7-.09,4.59-.26,9.58-.26,3.19,0,4.5.04,6.6.26.44.04.74.13,1.14.35,2.58,1.4,4.81,4.42,4.81,8.83s-2.14,7.48-7.61,9.75c2.19,3.24,6.69,9.23,7.96,11.33.17.26.04.31-.44.31-.52,0-1.4-.04-2.54-.04-.96,0-2.36.09-4.2.09ZM247.12,10.64c0,1.36,0,2.62-.09,3.67,1.27-.09,3.02-.13,4.77-.13s3.32.04,4.55.17c-.04-.83-.04-1.97-.04-3.19,0-1.97.04-4.11.17-5.47-.26-.04-.92-.09-1.49-.09-1.57,0-3.72.09-5.25.09-1.18,0-2.06-.04-2.71-.09.04,1.36.09,3.24.09,5.03Z"/>
      <path class="cls-1" d="M267.76,30.18c.26-8.88.31-22.78.09-29.69,0-.31.31-.44,1.05-.44,1.88,0,4.85.26,10.5.26,1.75,0,3.46-.04,4.29-.04.57,0,.92.18,1.31.44,4.81,3.5,6.3,6.91,6.3,14.26s-2.06,12.86-5.95,15.66c-.31.22-.48.31-.96.31-1.88,0-6.65-.13-15.48-.35-1.01-.04-1.14-.17-1.14-.39ZM274.45,25.28c1.53-.13,3.1-.17,4.72-.17,1.92,0,3.63.09,5.47.09-.35-5.55-.22-13.47-.09-19.42-.52.09-2.41.26-4.37.26-2.32,0-4.59-.04-5.86-.09.04,4.85-.09,13.73.13,19.33Z"/>
    </g>
  </g>
</svg>