<?xml version="1.0" encoding="UTF-8"?>
<svg id="Layer_2" data-name="Layer 2" xmlns="http://www.w3.org/2000/svg" width="77.34" height="74.37" viewBox="0 0 77.34 74.37">
  <defs>
    <style>
      .cls-1 {
        fill: #fff;
      }
    </style>
  </defs>
  <g id="Layer_1-2" data-name="Layer 1">
    <path class="cls-1" d="M42.19,24.5v2.75h-20.08l-2.78-4.17c-.36-.53-1.08-.67-1.62-.31-.53.36-.67,1.08-.31,1.62l1.91,2.86H7.6l2.28-5.7,4.17-1.39c.22-.08.42-.22.56-.41l4.45-5.94,6.98-1.94,5.2,3.14v4.03c0,.47.28.89.7,1.08l10.23,4.38Z"/>
    <path class="cls-1" d="M56.03,13l-9.75,1.77c-.23.05-.45.16-.62.33l-5.84,5.84-6.22-2.66v-3.53l4.45-5.94c.39-.52.28-1.25-.23-1.64s-1.25-.28-1.64.23l-4.05,5.41-4.44-2.69c.8-1.94,2.28-5.89,2.88-7.45l11.02-2.67,13.27,8.84,1.19,4.16Z"/>
    <path class="cls-1" d="M54.86,21.22l3.61,6.03h-13.94v-3.52c0-.47-.28-.89-.7-1.08l-1.7-.72,4.92-4.92,10.78-1.97h.02l5.44-.98,5.55,5.55,1.27,7.64h-8.89l-4.34-7.25c-.33-.55-1.05-.73-1.61-.39-.55.33-.73,1.05-.39,1.61h0Z"/>
    <path class="cls-1" d="M2.35,29.59h72.66v3.91H2.35v-3.91Z"/>
    <path class="cls-1" d="M5.66,35.84l4.34,28.91h2.58c.58-4.41,4.34-7.81,8.91-7.81s8.33,3.41,8.91,7.81h16.56c.39-3.03,2.3-5.58,4.94-6.89,1.19-.59,2.55-.92,3.97-.92,4.56,0,8.33,3.41,8.91,7.81h2.58l4.34-28.91h-9.97v16.84c0,.64-.53,1.17-1.17,1.17s-1.17-.53-1.17-1.17v-16.84h-8.59v16.84c0,.64-.53,1.17-1.17,1.17s-1.17-.53-1.17-1.17v-16.84h-8.59v20.7c0,.64-.53,1.17-1.17,1.17s-1.17-.53-1.17-1.17v-20.7h-8.59v16.84c0,.64-.53,1.17-1.17,1.17s-1.17-.53-1.17-1.17v-16.84h-8.59v16.84c0,.64-.53,1.17-1.17,1.17s-1.17-.53-1.17-1.17v-16.84H5.66Z"/>
    <path class="cls-1" d="M76.18,72.03h-17.71c2.37-1.02,4.04-3.37,4.04-6.11,0-3.66-2.98-6.64-6.64-6.64s-6.64,2.98-6.64,6.64c0,2.73,1.67,5.09,4.04,6.11h-29.17c2.37-1.02,4.04-3.37,4.04-6.11,0-3.66-2.98-6.64-6.64-6.64s-6.64,2.98-6.64,6.64c0,2.73,1.67,5.09,4.04,6.11H1.17c-.65,0-1.17.52-1.17,1.17s.52,1.17,1.17,1.17h75c.65,0,1.17-.52,1.17-1.17s-.52-1.17-1.17-1.17h0ZM55.86,63.58c1.3,0,2.34,1.05,2.34,2.34s-1.05,2.34-2.34,2.34-2.34-1.05-2.34-2.34,1.05-2.34,2.34-2.34ZM21.49,63.58c1.3,0,2.34,1.05,2.34,2.34s-1.05,2.34-2.34,2.34-2.34-1.05-2.34-2.34,1.05-2.34,2.34-2.34Z"/>
  </g>
</svg>