<?xml version="1.0" encoding="UTF-8"?>
<svg id="Layer_2" data-name="Layer 2" xmlns="http://www.w3.org/2000/svg" width="204.17" height="38.44" viewBox="0 0 204.17 38.44">
  <defs>
    <style>
      .cls-1 {
        fill: #fff;
      }
    </style>
  </defs>
  <g id="Layer_2-2" data-name="Layer 2">
    <g>
      <path class="cls-1" d="M7.45,38.38c-1.03.16-2.23-.05-3.37-.05-1.36,0-2.83.16-3.91,0-.11,0-.16-.05-.16-.16.33-7.77.6-16.64.6-25.61,0-3.92-.05-7.78-.16-11.63,0-.33.05-.6.44-.6C2.56.22,5.6.05,11.85.05c2.99,0,7.29.05,9.46.22,1.2.11,1.52.27,1.96.6,2.45,1.52,5.06,5.82,5.06,11.69,0,7.29-2.77,10.11-5.98,11.96-.54.33-1.41.54-2.12.54-7.23.11-10.71.11-11.8.05-.16,4.19-.27,6.14-.11,12.72,0,.22-.22.43-.87.54ZM8.59,18.38c1.79-.11,3.81-.22,5.87-.22,1.85,0,3.7.11,5.38.27-.05-.98-.11-2.39-.11-3.75,0-2.83.16-5.82.33-7.56-.49,0-1.41.05-2.5.05-2.94,0-7.94-.16-9.08-.27.05,1.96.22,8.37.11,11.47Z"/>
      <path class="cls-1" d="M54.26,38.38c-.33,0-.43-.05-.65-.38-2.07-3.48-8.05-12.18-10.71-16.26.05,3.04-.05,12.07.16,16.04,0,.22-.11.38-.65.44-1.09.11-3.1.05-4.29.05-1.36,0-2.23.11-3.1-.05-.27-.05-.33-.11-.33-.27,0-5.54.22-12.88.27-19.79.05-6.85,0-13.27,0-17.23,0-.33.05-.6.27-.6.87-.11,5.71-.33,11.91-.33,3.97,0,5.6.05,8.21.33.54.05.92.16,1.41.44,3.21,1.74,5.98,5.49,5.98,10.98s-2.66,9.3-9.46,12.12c2.72,4.02,8.32,11.47,9.9,14.08.22.33.05.38-.54.38-.65,0-1.74-.05-3.15-.05-1.2,0-2.94.11-5.22.11ZM42.95,13.16c0,1.69,0,3.26-.11,4.57,1.58-.11,3.75-.16,5.93-.16s4.13.05,5.65.22c-.05-1.03-.05-2.45-.05-3.97,0-2.45.05-5.11.22-6.8-.33-.05-1.14-.11-1.85-.11-1.96,0-4.62.11-6.52.11-1.47,0-2.56-.05-3.37-.11.05,1.68.11,4.02.11,6.25Z"/>
      <path class="cls-1" d="M75.36,0c4.46,0,8.64.16,14.08.27.6,0,.82.11,1.36.49,5.27,3.7,6.47,9.24,6.47,18.97,0,8.48-1.58,14.68-6.47,18.21-.43.27-.71.33-3.26.33s-5.71-.11-8.59-.11c-2.66,0-4.24.16-4.62.16s-.49-.11-.87-.43c-4.51-4.02-5.76-10.33-5.76-18.43,0-10.44,1.9-14.79,6.8-19.08.33-.27.54-.38.87-.38ZM82.48,31.04c2.34,0,4.62.05,6.69.11-.16-3.53-.22-7.23-.22-10.93,0-4.62.16-9.3.33-13.1-1.25.05-2.88.11-4.46.11-3.37,0-6.96-.11-9.08-.27.05,2.77.22,9.24.22,12.67,0,5.17-.22,7.56-.33,11.58,2.17-.11,4.51-.16,6.85-.16Z"/>
      <path class="cls-1" d="M108.09,38.33c-1.14,0-2.12-.05-2.88-.16-.49-.05-.6-.27-.6-.65,0-4.46.38-11.91.38-19.52,0-6.47.16-12.56-.11-17.29,0-.27.05-.38.54-.38,1.63,0,7.07-.05,10.71-.05,8.43,0,10.87-.27,11.63-.27.22,0,.33.11.38.71.05.98.11,3.86.11,6.52,0,.16-.05.22-.71.27-1.74.11-4.46.16-6.85.16-2.61,0-5.11-.05-7.67-.16.05,2.61.05,5.98-.11,8.92.38.05,2.23.22,3.37.22,3.21,0,6.52.16,9.19.16,1.25,0,2.07-.11,2.61-.11.38,0,.44.16.44.92,0,2.07.16,3.53.16,5.44,0,.33-.05.44-.65.54-1.14.22-3.1.27-5.44.27-2.99,0-6.52-.11-9.79-.11.22,5.93,0,10.11.27,14.14,0,.22-.11.33-.33.33-.76,0-2.77.11-4.68.11ZM138.7.11c1.25,0,2.39-.05,3.64-.05.33,0,.49.05.49.22.05,3.42-.05,6.74-.05,12.18,0,7.56.11,19.25.16,25.39,0,.27-.22.38-1.14.38-2.01,0-4.51-.11-6.9-.16-.22,0-.33-.11-.33-.33,0-3.32.22-8.92.22-17.72,0-5.33-.05-8.97-.44-19.74,0-.16.11-.27.33-.27.49,0,2.61.11,4.02.11Z"/>
      <path class="cls-1" d="M152.19,38.27c-.38,0-.49-.11-.49-.38.11-4.35.16-9.03.16-13.75,0-7.88-.16-15.98-.38-23.38,0-.33.16-.6.38-.6,2.61-.11,4.51-.16,7.34-.16.38,0,.6.11.6.98,0,1.69.11,3.97.11,8.48,0,6.31-.11,17.62-.22,21.31,2.34.05,4.57.11,6.96.11,2.12,0,4.46-.05,7.23-.22.44-.05.6.11.6.38,0,2.56.05,3.91.05,6.69,0,.33-.11.49-.98.49-4.24,0-7.94-.16-9.62-.16-3.37,0-9.84.22-11.74.22Z"/>
      <path class="cls-1" d="M204.01.33c.33,2.34.05,5.87.05,6.8,0,.16-.11.27-.27.27-4.84.05-11.2.05-15.6-.05.05,1.85.05,5.06-.11,7.88.38.11,2.45.16,3.59.16,2.99,0,6.03.11,8.54.11,1.85,0,2.72-.11,3.1-.11s.49.16.54,1.09c.05.92.27,4.13.27,5.65,0,.43-.16.6-.49.6-5,0-10.44-.49-15.77-.33.22,1.58.11,5.93.05,8.48,2.07,0,6.25.16,9.51.16,3.59,0,4.57-.16,5.55-.16.49,0,.65.11.71.54.11.71.16,1.52.16,2.88,0,1.25.05,2.12.05,3.04,0,.49-.11.65-.82.71-2.39.22-7.29-.05-8.92-.05-5.44,0-8.75.05-13.75.05-.44,0-.54-.33-.54-.82,0-8.75.38-19.79.38-27.62,0-5.82-.11-8.05-.11-8.86,0-.33.05-.6.33-.65.38-.05,6.85.05,11.04.05,9.08,0,11.25-.16,12.02-.16.27,0,.44.05.49.33Z"/>
    </g>
  </g>
</svg>