<?xml version="1.0" encoding="UTF-8"?>
<svg id="Layer_2" data-name="Layer 2" xmlns="http://www.w3.org/2000/svg" width="422.81" height="41.12" viewBox="0 0 422.81 41.12">
  <defs>
    <style>
      .cls-1 {
        fill: #fff;
      }
    </style>
  </defs>
  <g id="Layer_2-2" data-name="Layer 2">
    <g>
      <path class="cls-1" d="M29.99,23.32c.23.7.41,1.86.41,3.07,0,5.22-.87,9.45-3.54,12.41-1.57,1.74-2.09,2.09-3.54,2.09-.75,0-1.97-.06-3.54-.06-6.9,0-8.82.23-11.19.23-.99,0-1.45-.06-2.38-.64-4-2.55-6.21-8.41-6.21-12.47,0-1.1.12-1.33.41-1.33.81,0,1.91.23,5.51.23,1.22,0,2.2-.06,2.73-.06.29,0,.35.12.35.35-.12,1.8.06,4.35.17,6.32,4.47-.12,7.54-.23,12.01.12-.06-1.51,0-4.76.23-6.44-5.57-2.09-11.19-3.36-18.44-6.44-1.62-.7-1.74-.93-2.09-1.68-.46-1.04-.7-2.73-.7-4.87C.17,8.41,3.65,2.09,6.73.46c.52-.29.87-.35,1.28-.35,1.86,0,4.23.17,7.08.17,3.89,0,6.55-.23,7.54-.23.64,0,1.51.29,2.32.81,4.41,2.78,5.39,10.73,5.39,13.46,0,.46-.17.64-.64.64-2.26,0-5.34-.29-8-.35-.17,0-.35-.12-.35-.29-.12-1.45-.17-4.76-.06-6.55-.87.06-2.38.12-4.06.12-3.19,0-6.61-.12-8.24-.35-.06,1.91-.06,5.1-.17,7.02,5.63,1.74,15.02,4.99,19.26,6.55,1.1.41,1.39.7,1.91,2.2Z"/>
      <path class="cls-1" d="M65.54,4.35c0,1.39-.06,2.55-.17,3.31-.06.29-.35.41-3.36.41s-5.92-.23-8.24-.23c-.06,4.81-.17,10.79-.17,16.7,0,5.51.12,11.08.46,15.95,0,.23-.06.35-.23.35-1.91.12-6.38.17-8.47.17-.12,0-.17-.06-.17-.17,0-3.07.06-6.15.06-9.28,0-7.71-.12-15.54-.29-23.66-3.89.23-7.37-.06-10.32.12-.23,0-.29-.06-.29-.29s.12-1.39.12-2.61c0-1.68-.12-3.36-.12-4.58,0-.35.12-.52.46-.52,3.07,0,8.64.23,14.38.23,6.84,0,11.83.23,16.07.23.17,0,.23.06.23.29,0,.29.06,1.91.06,3.6Z"/>
      <path class="cls-1" d="M72.61,41c-.75,0-1.45-.12-2.73-.12-2.15,0-3.71,0-4.76-.12-.29-.06-.35-.17-.23-.58,3.13-11.02,8.93-28.36,12.53-39.15.23-.64.35-.81.7-.81,2.2,0,6.21-.06,7.37-.17.58-.06.81.12.93.41,6.15,17.23,8.12,24.65,12.53,39.73.12.35.06.52-.12.58-.35.12-.87.17-1.86.17-1.1,0-2.67-.12-4.99-.12-1.39,0-1.74,0-1.86-.41-.87-3.54-1.33-5.63-1.86-8.24-1.86.06-4.06.12-7.66.12-1.8,0-3.31-.06-5.05-.06-.87,3.42-1.45,5.74-2.15,8.29-.06.29-.17.46-.81.46ZM77.54,25.23c2.9-.06,5.92-.12,8.64-.12-1.51-5.8-3.19-11.54-4.12-15.54-1.04,3.83-2.84,9.34-4.52,15.66Z"/>
      <path class="cls-1" d="M125.8,41.06c-.35,0-.46-.06-.7-.41-2.2-3.71-8.58-12.99-11.43-17.34.06,3.25-.06,12.88.17,17.11,0,.23-.12.41-.7.46-1.16.12-3.31.06-4.58.06-1.45,0-2.38.12-3.31-.06-.29-.06-.35-.12-.35-.29,0-5.92.23-13.75.29-21.11.06-7.31,0-14.15,0-18.39,0-.35.06-.64.29-.64.93-.12,6.09-.35,12.7-.35,4.23,0,5.97.06,8.76.35.58.06.99.17,1.51.46,3.42,1.86,6.38,5.86,6.38,11.72s-2.84,9.92-10.09,12.93c2.9,4.29,8.87,12.24,10.56,15.02.23.35.06.41-.58.41-.7,0-1.86-.06-3.36-.06-1.28,0-3.13.12-5.57.12ZM113.74,14.15c0,1.8,0,3.48-.12,4.87,1.68-.12,4-.17,6.32-.17s4.41.06,6.03.23c-.06-1.1-.06-2.61-.06-4.23,0-2.61.06-5.45.23-7.25-.35-.06-1.22-.12-1.97-.12-2.09,0-4.93.12-6.96.12-1.57,0-2.73-.06-3.6-.12.06,1.8.12,4.29.12,6.67Z"/>
      <path class="cls-1" d="M170,4.35c0,1.39-.06,2.55-.17,3.31-.06.29-.35.41-3.36.41s-5.92-.23-8.24-.23c-.06,4.81-.17,10.79-.17,16.7,0,5.51.12,11.08.46,15.95,0,.23-.06.35-.23.35-1.91.12-6.38.17-8.47.17-.12,0-.17-.06-.17-.17,0-3.07.06-6.15.06-9.28,0-7.71-.12-15.54-.29-23.66-3.89.23-7.37-.06-10.32.12-.23,0-.29-.06-.29-.29s.12-1.39.12-2.61c0-1.68-.12-3.36-.12-4.58,0-.35.12-.52.46-.52,3.07,0,8.64.23,14.38.23,6.84,0,11.83.23,16.07.23.17,0,.23.06.23.29,0,.29.06,1.91.06,3.6Z"/>
      <path class="cls-1" d="M193.66,40.95c-1.57,0-3.25,0-4.29-.12-.23,0-.29-.17-.29-.58.64-16.88,0-31.67.75-39.32.06-.64.17-.7,1.39-.7,2.09,0,4.93.17,6.73.17.52,0,.81.17,1.04.58,1.28,2.2,6.09,12.58,12.35,25.34-.23-13.86-.52-23.55-.52-25.52,0-.46.06-.58.46-.58.81-.06,2.73-.12,4.47-.12,1.33,0,2.38.06,3.13.12.29,0,.35.23.35.64,0,5.57-.12,23.49.06,39.5,0,.23-.17.35-.58.35-1.91,0-6.26.17-8.18.17-.35,0-.52-.17-.7-.52-3.07-5.86-8.7-16.53-12.47-24.53.12,5.63.12,9.11.17,11.6.06,3.25.06,10.5.06,12.99,0,.29-.12.35-.52.41-.52.06-1.68.12-3.42.12Z"/>
      <path class="cls-1" d="M253.98.46c.35,2.49.06,6.26.06,7.25,0,.17-.12.29-.29.29-5.16.06-11.95.06-16.65-.06.06,1.97.06,5.39-.12,8.41.41.12,2.61.17,3.83.17,3.19,0,6.44.12,9.11.12,1.97,0,2.9-.12,3.31-.12s.52.17.58,1.16c.06.99.29,4.41.29,6.03,0,.46-.17.64-.52.64-5.34,0-11.14-.52-16.82-.35.23,1.68.12,6.32.06,9.05,2.2,0,6.67.17,10.15.17,3.83,0,4.87-.17,5.92-.17.52,0,.7.12.75.58.12.75.17,1.62.17,3.07,0,1.33.06,2.26.06,3.25,0,.52-.12.7-.87.75-2.55.23-7.77-.06-9.51-.06-5.8,0-9.34.06-14.67.06-.46,0-.58-.35-.58-.87,0-9.34.41-21.11.41-29.46,0-6.21-.12-8.58-.12-9.45,0-.35.06-.64.35-.7.41-.06,7.31.06,11.77.06,9.69,0,12.01-.17,12.82-.17.29,0,.46.06.52.35Z"/>
      <path class="cls-1" d="M267.38,41.06c-.58,0-.7-.06-.75-.46-2.96-15.2-4.35-27.49-6.21-39.5-.12-.7,0-.87.81-.87.58,0,1.51.06,1.97.06,1.1,0,4.64-.12,5.34-.12.17,0,.35.12.35.35.7,6.38,1.04,11.83,2.44,22.45,2.49-8.12,4.29-12.53,5.86-17.23.17-.52.35-.7.81-.7,1.1,0,1.74-.06,2.09-.06.29,0,.41.12.52.41,2.03,4.7,3.71,10.27,6.21,18.68,1.57-10.85,1.8-16.94,2.61-23.37.06-.29.17-.35.87-.35h2.96c1.39,0,2.32-.12,3.65-.12.46,0,.64.06.52.87-2.09,12.35-3.02,23.9-5.68,39.27-.06.41-.23.52-1.04.46-1.86-.12-4.41,0-5.34,0-.35,0-.46-.12-.52-.35-1.91-6.67-4.12-12.82-6.21-18.68-2.26,6.5-4.12,11.95-5.97,18.73-.06.23-.29.35-.64.35-1.68,0-3.48.12-4.64.17Z"/>
      <path class="cls-1" d="M337.96,41.06c-.35,0-.46-.06-.7-.41-2.2-3.71-8.58-12.99-11.43-17.34.06,3.25-.06,12.88.17,17.11,0,.23-.12.41-.7.46-1.16.12-3.31.06-4.58.06-1.45,0-2.38.12-3.31-.06-.29-.06-.35-.12-.35-.29,0-5.92.23-13.75.29-21.11.06-7.31,0-14.15,0-18.39,0-.35.06-.64.29-.64.93-.12,6.09-.35,12.7-.35,4.23,0,5.97.06,8.76.35.58.06.99.17,1.51.46,3.42,1.86,6.38,5.86,6.38,11.72s-2.84,9.92-10.09,12.93c2.9,4.29,8.87,12.24,10.56,15.02.23.35.06.41-.58.41-.7,0-1.86-.06-3.36-.06-1.28,0-3.13.12-5.57.12ZM325.9,14.15c0,1.8,0,3.48-.12,4.87,1.68-.12,4-.17,6.32-.17s4.41.06,6.03.23c-.06-1.1-.06-2.61-.06-4.23,0-2.61.06-5.45.23-7.25-.35-.06-1.22-.12-1.97-.12-2.09,0-4.93.12-6.96.12-1.57,0-2.73-.06-3.6-.12.06,1.8.12,4.29.12,6.67Z"/>
      <path class="cls-1" d="M366.67,33.06c3.48,0,7.6.06,8.41.17,0-9.92-.17-18.39-.17-22.45s.35-9.57.35-10.21c0-.23.12-.35.46-.35,2.26,0,6.9.06,7.95.06.52,0,.52.35.52,2.26,0,5.05-.52,16.36-.52,24.88s-4.12,11.54-7.42,13.22c-.58.29-1.22.46-1.62.46-2.73,0-6.21-.35-11.66-.35-.46,0-.99.06-1.39.06-.46,0-.99-.12-1.39-.35-4.29-2.84-6.55-7.31-6.55-15.72,0-5.74-.12-6.84-.12-10.85,0-4.52.17-8.93.17-13.34,0-.35.12-.46.35-.46,1.1,0,3.31.06,5.28.06.99,0,1.91-.06,2.55-.06.35,0,.46.12.46.29,0,9.8-.41,24.82-.58,32.77.52-.06,2.61-.12,4.93-.12Z"/>
      <path class="cls-1" d="M397.18,40.95c-1.57,0-3.25,0-4.29-.12-.23,0-.29-.17-.29-.58.64-16.88,0-31.67.75-39.32.06-.64.17-.7,1.39-.7,2.09,0,4.93.17,6.73.17.52,0,.81.17,1.04.58,1.28,2.2,6.09,12.58,12.35,25.34-.23-13.86-.52-23.55-.52-25.52,0-.46.06-.58.46-.58.81-.06,2.73-.12,4.47-.12,1.33,0,2.38.06,3.13.12.29,0,.35.23.35.64,0,5.57-.12,23.49.06,39.5,0,.23-.17.35-.58.35-1.91,0-6.26.17-8.18.17-.35,0-.52-.17-.7-.52-3.07-5.86-8.7-16.53-12.47-24.53.12,5.63.12,9.11.17,11.6.06,3.25.06,10.5.06,12.99,0,.29-.12.35-.52.41-.52.06-1.68.12-3.42.12Z"/>
    </g>
  </g>
</svg>