<?xml version="1.0" encoding="UTF-8"?>
<svg id="Layer_2" data-name="Layer 2" xmlns="http://www.w3.org/2000/svg" width="972.6" height="204.02" viewBox="0 0 972.6 204.02">
  <defs>
    <style>
      .cls-1 {
        fill: #fff;
      }

      .cls-2 {
        fill: #f7941d;
      }
    </style>
  </defs>
  <g id="Layer_2-2" data-name="Layer 2">
    <g>
      <g>
        <path d="M126.4,44.89l-5.58,51.05-9.98,29.93-9.1,2.64-3.52,6.46-34.33,8.8-.29,35.5-7.34,4.69-2.05,10.56-6.75.29.59-11.44-1.76-4.4-2.35,4.4-.29,11.74-19.66.88v-76.58l-3.81-3.52,2.64-54.87-4.69-2.05-4.4-13.79,10.27-1.47,3.81-2.35-4.69-1.47-9.68,1.47.29-5.87,20.54-3.23,4.11-2.35-4.69-1.47-19.37,2.93.88-12.32,17.31.29.88-5.87,49.59-7.92,1.17,7.92,2.35,3.81,1.47-4.69-.88-7.63,6.16-1.17,19.37,17.31,7.34,22.01,6.46,1.76ZM48.35,163.43l-1.76-4.99-2.05,3.52-.29,7.34,2.05,4.4,1.47-3.81.59-6.46ZM54.51,113.26l-.29-14.38-1.76-4.11-1.47,4.99.59,14.38,1.17,4.4,1.76-5.28ZM88.26,73.65l-4.69-4.4v-23.47l-19.66,3.81-.29,51.64,2.05,4.11,12.91-2.93,8.8-15.84.88-12.91Z"/>
        <path d="M250.22,183.68l-14.67.59-.88-3.52-2.64-4.69-.88,5.28,2.05,7.92-1.76,4.99h-7.04l-5.57-18.78-2.64-4.99-.88,5.28,4.69,18.48h-9.39l-5.87-36.68-10.56,2.05-1.76-2.93-19.95,6.16-3.23,24.35-9.98,1.17-1.47,5.87-12.62-1.47,1.47-10.27-.29-5.57-2.93,4.4-2.05,10.86-14.08-1.47,4.69-32.86-2.93-14.67,7.34-2.64,4.69-2.93-5.28-.59-7.33,2.35-1.47-6.75,10.56-4.4,4.4-9.1,8.8-62.5,7.92-26.7,8.8-5.87-.29-13.5,18.78-7.63,2.64,15.84,2.05,5.28,1.47-4.99-1.76-14.67,6.75,3.81,2.64,16.43,2.05,5.28,1.47-5.28-1.76-14.08,12.32,6.75,4.69,16.72,5.57,28.46,10.27,55.45,3.81,4.69,12.03,61.03ZM174.23,97.71l-.29-3.81-2.93,2.93-1.76,10.27,1.17,4.4,2.05-3.52,1.76-10.27ZM197.7,117.36l-4.69-17.02.88-7.04-6.46-29.93-2.35,1.76-3.23,32.57-2.93,24.35,18.78-4.69ZM215.89,158.73l-.59-5.28-1.47-3.23-1.76,3.81.59,4.99,2.64,3.52.59-3.81Z"/>
        <path d="M369.64,168.71l-12.91,6.75-2.64,7.92-29.63,15.55-31.69-10.56-3.23-10.56-5.57.59-4.4-6.46.59-21.13-1.47-4.69-2.35,4.69s-.29,7.92-.29,15.55l-9.98-15.26,2.93-87.14-6.16-4.4s3.23-27.29,3.23-28.46l31.69-12.91.88-5.87,25.82-8.51,7.63,13.2,3.81,3.52-.59-5.28s-3.52-6.46-7.04-12.62l8.51-2.64,15.84,14.67,13.5,32.28-2.35,27.58-5.28,3.23-6.16,14.38s-2.05-.29-5.28-.59l.59-11.74-1.17-4.99-2.35,4.69s-.29,5.28-.88,11.44c-1.47-.29-3.23-.59-4.99-.88l.29-3.81-1.47-4.69-2.35,4.69s0,1.17-.29,3.23c-2.93-.29-5.28-.59-5.87-.88-1.47-.29-2.64-35.5-2.64-35.5l-6.46-8.22-13.79,10.86-3.23,48.41,3.81,7.63,2.05,38.44,8.51,5.58,12.62-7.04,5.28,1.76,18.49-11.44,3.52,6.46-5.57,3.52-3.23,3.81,5.28-.88s2.35-1.17,5.28-3.23l2.64,4.69-12.62,8.22-3.23,3.81,5.28-.59s6.46-4.11,12.62-8.22l6.46,12.03ZM296.58,68.36l-1.76-4.69-1.76,4.4-1.17,7.34,1.47,4.69,2.35-3.81.88-7.92ZM342.05,169l-.59-1.47-1.76-.29-2.93,2.05-.29,2.35,3.52-1.17,2.05-1.47Z"/>
        <path d="M501.38,158.15l-2.93,7.63,2.64,12.03-4.7,3.23-7.63-10.86-3.81-3.23.88,5.28s3.52,5.28,7.33,10.86l-3.81,2.64-2.64-3.52-3.81-2.93.88,4.99s.88,1.47,2.35,3.52l-5.28,3.81-16.14-14.67.59-5.58-10.56-17.31h-6.46l-18.19-27.58-1.17,12.62,2.64,2.93-2.35,49.88-11.44,1.17v-9.39l-1.76-4.69-2.05,4.99v9.39l-9.39.88-2.35-9.39-9.39-1.17-3.23-62.2,2.93-8.22-4.99-2.35-.29-87.14,8.8-6.16,1.17-8.8,9.39-.29.29,17.31,1.47,4.69,2.05-4.69V8.51l5.87-.29v7.92l1.47,4.69,2.35-4.69v-7.92l7.63-.29-.29,72.77,10.86-14.67,12.03-18.19-2.05-6.16,19.95-29.05,9.68,2.05,9.98-6.46,4.99,3.23-6.16,9.98-1.47,4.69,4.4-2.93s2.93-4.4,6.16-9.39l9.1,6.16-11.74,21.71v6.16l-14.67,27.58-4.99.88s-14.38,23.47-14.08,24.65c.59.88,13.5,22.01,13.5,22.01h4.11l24.35,35.21ZM401.03,67.78l-1.76-4.11-.88,4.11-.59,11.44,2.35,6.46.88-7.04v-10.86ZM417.46,169l-.29-5.28-1.47-4.4-1.76,3.81v6.75l1.76,3.52,1.76-4.4ZM466.75,128.81l-4.99-6.46-3.23-.59.29,2.93,4.11,5.57,3.52,1.47.29-2.93Z"/>
        <path d="M629.89,174.87l-3.81-2.64.59,4.99,3.23,4.99-4.11,2.64-10.56-16.43-3.81-2.64.59,4.7,10.27,16.72-7.04,4.4-13.2-14.96-10.86-1.47-17.9-39.32-4.69,2.35-.29,39.02-14.38,4.99-2.35,11.15-7.04,1.76v-10.56l-2.05-4.4-2.05,4.4v11.74l-6.16,1.47-8.22-10.86,2.93-81.86-4.69-6.16,1.47-51.93-3.23.29-2.35-9.68,15.26-2.35,4.11-2.35-4.69-1.47-15.55,2.35-.88-2.93.29-3.52,4.4-.88,4.11-2.35-4.69-1.47-3.52.59.29-8.8,34.04-3.81.59-4.99,42.84-4.4,11.74,12.91-9.98,1.47-4.11,2.35,4.69,1.47,12.62-1.76,12.32,13.2.29,17.6,6.16,1.17-3.23,53.11-18.49,15.84,24.65,41.37,3.52,17.6-3.81,2.64-3.23-5.28ZM545.1,161.38l-1.17-6.75-2.64,6.46-.29,9.39,1.76,4.69,1.76-4.69.59-9.1ZM590.87,77.46l-2.64-31.1-4.99-7.04-16.43,2.64-2.93,36.68,4.69,2.05.29,19.95,9.98-4.4,12.03-18.78ZM604.07,74.23l-4.11,2.64-5.28,7.92-1.76,5.28,5.28-2.93,4.11-7.92,1.76-4.99Z"/>
        <path d="M764.28,107.98l-5.28,64.26-29.34,23.47-38.73-.88-.59-5.87,6.46-2.35,3.23-2.93-4.69-.59-14.08,4.69-21.12-22.01s.29-13.5.29-14.38-5.28-5.57-5.28-5.57l-1.47-68.37,5.87-10.27-.88-49.29,9.1-1.17v7.92l1.76,4.11,2.05-4.4v-9.39l3.81-4.11,3.52.29.29,29.63,1.76,4.11,2.05-4.4V11.44l13.79,1.17.88,64.55-4.11,33.45,3.52,6.46,2.64,36.09,10.86,4.4,10.27-7.04,2.64-29.93.59-25.53-4.7-1.47-.29-68.66,7.33-5.28,4.99-11.74h10.27v10.86l2.05,4.4,1.76-4.4V7.63h11.15l4.99,17.02-2.64,79.51,5.28,3.81ZM735.52,103.57l-.88-4.69-2.35,2.93-.88,16.14,1.76,4.69,1.76-6.16.59-12.91ZM744.91,29.93l-2.05-2.05-2.05,3.23v9.98l1.76,4.4,2.05-5.57.29-9.98Z"/>
        <path d="M895.14,24.06l-1.76,113.26-4.11,5.28-.29,45.48-7.04,2.05v-5.28l-1.76-4.4-2.05,4.69v6.16l-7.04,2.05-.29-18.19-1.76-4.11-2.05,4.4v19.07l-12.62-6.16-13.2-39.9,2.05-4.99-14.67-34.62-.29,71.89-12.91,13.5-4.99-.59v-15.84l-2.05-4.4-2.05,4.69v15.26l-4.11-.59-4.11-8.8-11.74-4.4c0-1.76-.59-51.64-.59-51.64l4.11-11.44-5.28-99.17,9.98-7.92,8.22,1.17,6.75,15.55,3.23,3.23.29-4.99-5.57-13.2,7.33.88,2.35,4.69,9.98-2.93,25.82,64.26,2.05-40.78-3.52-7.63,2.64-21.71,7.63-.29-.29,8.22,1.76,4.4,2.35-4.4.29-8.22,24.35-1.17,4.99,17.6ZM810.05,156.98l-1.17-5.28-2.05,5.28v8.21l1.47,3.52,1.47-4.99.29-6.75ZM822.37,47.83l-5.58-14.08-2.93-.88-.29,3.23,5.28,12.91,3.23,2.05.29-3.23Z"/>
        <path d="M972.6,178.39l-9.98,4.4.88,5.87-38.44,8.8-2.35-7.33,5.28-1.76,5.28-3.52-7.04.29-4.69,1.47-5.58-16.43,14.38-12.32,28.75-8.51,10.27-.59.59,5.87-10.56,3.23-4.99,3.52,7.04-.29,9.1-2.64,2.05,19.95ZM919.49,55.75l-.29-55.16,9.39.29v22.89l1.47,6.16,2.05-6.75.59-22.3h.59l7.04,1.17v7.63l1.76,5.87,1.76-6.75.29-6.46,13.5,2.05,2.05,15.84s5.28,11.44,6.16,10.86c1.17-.59-3.52,79.51-3.52,79.51l-4.4,5.57-1.76,17.9-12.03,6.46-4.4-4.99v-16.43l-1.76-5.87-2.05,6.75-.29,11.44-8.21-8.51-3.81-17.31.88-47.83-4.99-2.05ZM935.63,102.11l2.05,4.69,2.35-4.4.29-8.22-1.17-4.99-3.23,4.4-.29,8.51Z"/>
      </g>
      <g>
        <path class="cls-1" d="M112.96,49.98l-5.58,51.05-9.98,29.93-9.1,2.64-3.52,6.45-34.33,8.8-.29,35.5-7.34,4.69-2.05,10.56-6.75.29.59-11.44-1.76-4.4-2.35,4.4-.29,11.74-19.66.88v-76.58l-3.81-3.52,2.64-54.87-4.69-2.05L.29,50.28l10.27-1.47,3.81-2.35-4.69-1.47-9.68,1.47.29-5.87,20.54-3.23,4.11-2.35-4.69-1.47L.88,36.49l.88-12.32,17.31.29.88-5.87,49.59-7.92,1.17,7.92,2.35,3.81,1.47-4.69-.88-7.63,6.16-1.17,19.37,17.31,7.34,22.01,6.46,1.76ZM34.92,168.52l-1.76-4.99-2.05,3.52-.29,7.34,2.05,4.4,1.47-3.81.59-6.46ZM41.08,118.35l-.29-14.38-1.76-4.11-1.47,4.99.59,14.38,1.17,4.4,1.76-5.28ZM74.82,78.74l-4.69-4.4v-23.47l-19.66,3.81-.29,51.64,2.05,4.11,12.91-2.93,8.8-15.84.88-12.91Z"/>
        <path class="cls-1" d="M236.78,188.77l-14.67.59-.88-3.52-2.64-4.69-.88,5.28,2.05,7.92-1.76,4.99h-7.04l-5.57-18.78-2.64-4.99-.88,5.28,4.69,18.48h-9.39l-5.87-36.68-10.56,2.05-1.76-2.93-19.95,6.16-3.23,24.35-9.98,1.17-1.47,5.87-12.62-1.47,1.47-10.27-.29-5.57-2.93,4.4-2.05,10.86-14.08-1.47,4.69-32.86-2.93-14.67,7.34-2.64,4.69-2.93-5.28-.59-7.33,2.35-1.47-6.75,10.56-4.4,4.4-9.1,8.8-62.5,7.92-26.7,8.8-5.87-.29-13.5,18.78-7.63,2.64,15.84,2.05,5.28,1.47-4.99-1.76-14.67,6.75,3.81,2.64,16.43,2.05,5.28,1.47-5.28-1.76-14.08,12.32,6.75,4.69,16.72,5.57,28.46,10.27,55.45,3.81,4.69,12.03,61.03ZM160.79,102.8l-.29-3.81-2.93,2.93-1.76,10.27,1.17,4.4,2.05-3.52,1.76-10.27ZM184.26,122.45l-4.69-17.02.88-7.04-6.46-29.93-2.35,1.76-3.23,32.57-2.93,24.35,18.78-4.69ZM202.46,163.83l-.59-5.28-1.47-3.23-1.76,3.81.59,4.99,2.64,3.52.59-3.81Z"/>
        <path class="cls-1" d="M356.2,173.8l-12.91,6.75-2.64,7.92-29.63,15.55-31.69-10.56-3.23-10.56-5.57.59-4.4-6.46.59-21.13-1.47-4.69-2.35,4.69s-.29,7.92-.29,15.55l-9.98-15.26,2.93-87.14-6.16-4.4s3.23-27.29,3.23-28.46l31.69-12.91.88-5.87,25.82-8.51,7.63,13.2,3.81,3.52-.59-5.28s-3.52-6.46-7.04-12.62l8.51-2.64,15.84,14.67,13.5,32.28-2.35,27.58-5.28,3.23-6.16,14.38s-2.05-.29-5.28-.59l.59-11.74-1.17-4.99-2.35,4.69s-.29,5.28-.88,11.44c-1.47-.29-3.23-.59-4.99-.88l.29-3.81-1.47-4.69-2.35,4.69s0,1.17-.29,3.23c-2.93-.29-5.28-.59-5.87-.88-1.47-.29-2.64-35.5-2.64-35.5l-6.46-8.22-13.79,10.86-3.23,48.41,3.81,7.63,2.05,38.44,8.51,5.58,12.62-7.04,5.28,1.76,18.49-11.44,3.52,6.46-5.57,3.52-3.23,3.81,5.28-.88s2.35-1.17,5.28-3.23l2.64,4.69-12.62,8.22-3.23,3.81,5.28-.59s6.46-4.11,12.62-8.22l6.46,12.03ZM283.14,73.46l-1.76-4.69-1.76,4.4-1.17,7.34,1.47,4.69,2.35-3.81.88-7.92ZM328.62,174.09l-.59-1.47-1.76-.29-2.93,2.05-.29,2.35,3.52-1.17,2.05-1.47Z"/>
        <path class="cls-1" d="M487.94,163.24l-2.93,7.63,2.64,12.03-4.7,3.23-7.63-10.86-3.81-3.23.88,5.28s3.52,5.28,7.33,10.86l-3.81,2.64-2.64-3.52-3.81-2.93.88,4.99s.88,1.47,2.35,3.52l-5.28,3.81-16.14-14.67.59-5.58-10.56-17.31h-6.46l-18.19-27.58-1.17,12.62,2.64,2.93-2.35,49.88-11.44,1.17v-9.39l-1.76-4.69-2.05,4.99v9.39l-9.39.88-2.35-9.39-9.39-1.17-3.23-62.2,2.93-8.22-4.99-2.35-.29-87.14,8.8-6.16,1.17-8.8,9.39-.29.29,17.31,1.47,4.69,2.05-4.69V13.6l5.87-.29v7.92l1.47,4.69,2.35-4.69v-7.92l7.63-.29-.29,72.77,10.86-14.67,12.03-18.19-2.05-6.16,19.95-29.05,9.68,2.05,9.98-6.46,4.99,3.23-6.16,9.98-1.47,4.69,4.4-2.93s2.93-4.4,6.16-9.39l9.1,6.16-11.74,21.71v6.16l-14.67,27.58-4.99.88s-14.38,23.47-14.08,24.65c.59.88,13.5,22.01,13.5,22.01h4.11l24.35,35.21ZM387.59,72.87l-1.76-4.11-.88,4.11-.59,11.44,2.35,6.46.88-7.04v-10.86ZM404.03,174.09l-.29-5.28-1.47-4.4-1.76,3.81v6.75l1.76,3.52,1.76-4.4ZM453.32,133.9l-4.99-6.46-3.23-.59.29,2.93,4.11,5.57,3.52,1.47.29-2.93Z"/>
        <path class="cls-2" d="M616.46,179.96l-3.81-2.64.59,4.99,3.23,4.99-4.11,2.64-10.56-16.43-3.81-2.64.59,4.7,10.27,16.72-7.04,4.4-13.2-14.96-10.86-1.47-17.9-39.32-4.69,2.35-.29,39.02-14.38,4.99-2.35,11.15-7.04,1.76v-10.56l-2.05-4.4-2.05,4.4v11.74l-6.16,1.47-8.22-10.86,2.93-81.86-4.69-6.16,1.47-51.93-3.23.29-2.35-9.68,15.26-2.35,4.11-2.35-4.69-1.47-15.55,2.35-.88-2.93.29-3.52,4.4-.88,4.11-2.35-4.69-1.47-3.52.59.29-8.8,34.04-3.81.59-4.99,42.84-4.4,11.74,12.91-9.98,1.47-4.11,2.35,4.69,1.47,12.62-1.76,12.32,13.2.29,17.6,6.16,1.17-3.23,53.11-18.49,15.84,24.65,41.37,3.52,17.6-3.81,2.64-3.23-5.28ZM531.66,166.47l-1.17-6.75-2.64,6.46-.29,9.39,1.76,4.69,1.76-4.69.59-9.1ZM577.43,82.55l-2.64-31.1-4.99-7.04-16.43,2.64-2.93,36.68,4.69,2.05.29,19.95,9.98-4.4,12.03-18.78ZM590.64,79.32l-4.11,2.64-5.28,7.92-1.76,5.28,5.28-2.93,4.11-7.92,1.76-4.99Z"/>
        <path class="cls-2" d="M750.84,113.07l-5.28,64.26-29.34,23.47-38.73-.88-.59-5.87,6.46-2.35,3.23-2.93-4.69-.59-14.08,4.69-21.12-22.01s.29-13.5.29-14.38-5.28-5.58-5.28-5.58l-1.47-68.36,5.87-10.27-.88-49.29,9.1-1.17v7.92l1.76,4.11,2.05-4.4v-9.39l3.81-4.11,3.52.29.29,29.63,1.76,4.11,2.05-4.4v-29.05l13.79,1.17.88,64.55-4.11,33.45,3.52,6.46,2.64,36.09,10.86,4.4,10.27-7.04,2.64-29.93.59-25.53-4.7-1.47-.29-68.66,7.33-5.28,4.99-11.74h10.27v10.86l2.05,4.4,1.76-4.4v-11.15h11.15l4.99,17.02-2.64,79.51,5.28,3.81ZM722.09,108.66l-.88-4.69-2.35,2.93-.88,16.14,1.76,4.69,1.76-6.16.59-12.91ZM731.48,35.02l-2.05-2.05-2.05,3.23v9.98l1.76,4.4,2.05-5.57.29-9.98Z"/>
        <path class="cls-2" d="M881.7,29.15l-1.76,113.26-4.11,5.28-.29,45.48-7.04,2.05v-5.28l-1.76-4.4-2.05,4.69v6.16l-7.04,2.05-.29-18.19-1.76-4.11-2.05,4.4v19.07l-12.62-6.16-13.2-39.9,2.05-4.99-14.67-34.62-.29,71.89-12.91,13.5-4.99-.59v-15.84l-2.05-4.4-2.05,4.69v15.26l-4.11-.59-4.11-8.8-11.74-4.4c0-1.76-.59-51.64-.59-51.64l4.11-11.44-5.28-99.17,9.98-7.92,8.22,1.17,6.75,15.55,3.23,3.23.29-4.99-5.57-13.2,7.33.88,2.35,4.69,9.98-2.93,25.82,64.26,2.05-40.78-3.52-7.63,2.64-21.71,7.63-.29-.29,8.22,1.76,4.4,2.35-4.4.29-8.22,24.35-1.17,4.99,17.6ZM796.61,162.07l-1.17-5.28-2.05,5.28v8.21l1.47,3.52,1.47-4.99.29-6.75ZM808.94,52.92l-5.58-14.08-2.93-.88-.29,3.23,5.28,12.91,3.23,2.05.29-3.23Z"/>
        <path class="cls-2" d="M959.16,183.48l-9.98,4.4.88,5.87-38.44,8.8-2.35-7.33,5.28-1.76,5.28-3.52-7.04.29-4.69,1.47-5.58-16.43,14.38-12.32,28.75-8.51,10.27-.59.59,5.87-10.56,3.23-4.99,3.52,7.04-.29,9.1-2.64,2.05,19.95ZM906.06,60.84l-.29-55.16,9.39.29v22.89l1.47,6.16,2.05-6.75.59-22.3h.59l7.04,1.17v7.63l1.76,5.87,1.76-6.75.29-6.46,13.5,2.05,2.05,15.84s5.28,11.44,6.16,10.86c1.17-.59-3.52,79.51-3.52,79.51l-4.4,5.57-1.76,17.9-12.03,6.46-4.4-4.99v-16.43l-1.76-5.87-2.05,6.75-.29,11.44-8.21-8.51-3.81-17.31.88-47.83-4.99-2.05ZM922.19,107.2l2.05,4.69,2.35-4.4.29-8.22-1.17-4.99-3.23,4.4-.29,8.51Z"/>
      </g>
    </g>
  </g>
</svg>