<?xml version="1.0" encoding="UTF-8"?>
<svg id="Layer_2" data-name="Layer 2" xmlns="http://www.w3.org/2000/svg" width="76.04" height="15.56" viewBox="0 0 76.04 15.56">
  <g id="Layer_2-2" data-name="Layer 2">
    <g>
      <path d="M2.65,15.56c-.22,0-.26-.02-.29-.18C1.25,9.62.72,4.95.01.4-.03.13.01.07.32.07c.22,0,.57.02.75.02.42,0,1.76-.04,2.02-.04.07,0,.13.04.13.13.26,2.42.4,4.49.92,8.51.95-3.08,1.63-4.75,2.22-6.53.07-.2.13-.26.31-.26.42,0,.66-.02.79-.02.11,0,.15.04.2.15.77,1.78,1.41,3.89,2.35,7.08.59-4.11.68-6.42.99-8.87.02-.11.07-.13.33-.13h1.12c.53,0,.88-.04,1.39-.04.18,0,.24.02.2.33-.79,4.69-1.14,9.07-2.16,14.9-.02.15-.09.2-.4.18-.7-.04-1.67,0-2.02,0-.13,0-.18-.04-.2-.13-.73-2.53-1.56-4.86-2.35-7.08-.86,2.46-1.56,4.53-2.27,7.11-.02.09-.11.13-.24.13-.64,0-1.32.04-1.76.07Z"/>
      <path d="M26.17.15c.13.95.02,2.38.02,2.75,0,.07-.04.11-.11.11-1.96.02-4.53.02-6.31-.02.02.75.02,2.05-.04,3.19.15.04.99.07,1.45.07,1.21,0,2.44.04,3.45.04.75,0,1.1-.04,1.25-.04s.2.07.22.44.11,1.67.11,2.29c0,.18-.07.24-.2.24-2.02,0-4.22-.2-6.38-.13.09.64.04,2.4.02,3.43.84,0,2.53.07,3.85.07,1.45,0,1.85-.07,2.24-.07.2,0,.26.04.29.22.04.29.07.62.07,1.17,0,.51.02.86.02,1.23,0,.2-.04.26-.33.29-.97.09-2.95-.02-3.61-.02-2.2,0-3.54.02-5.57.02-.18,0-.22-.13-.22-.33,0-3.54.15-8.01.15-11.18,0-2.35-.04-3.26-.04-3.59,0-.13.02-.24.13-.26.15-.02,2.77.02,4.47.02,3.67,0,4.55-.07,4.86-.07.11,0,.18.02.2.13Z"/>
      <path d="M38.91.15c.13.95.02,2.38.02,2.75,0,.07-.04.11-.11.11-1.96.02-4.53.02-6.31-.02.02.75.02,2.05-.04,3.19.15.04.99.07,1.45.07,1.21,0,2.44.04,3.45.04.75,0,1.1-.04,1.25-.04s.2.07.22.44.11,1.67.11,2.29c0,.18-.07.24-.2.24-2.02,0-4.22-.2-6.38-.13.09.64.04,2.4.02,3.43.84,0,2.53.07,3.85.07,1.45,0,1.85-.07,2.24-.07.2,0,.26.04.29.22.04.29.07.62.07,1.17,0,.51.02.86.02,1.23,0,.2-.04.26-.33.29-.97.09-2.95-.02-3.61-.02-2.2,0-3.54.02-5.57.02-.18,0-.22-.13-.22-.33,0-3.54.15-8.01.15-11.18,0-2.35-.04-3.26-.04-3.59,0-.13.02-.24.13-.26.15-.02,2.77.02,4.47.02,3.67,0,4.55-.07,4.86-.07.11,0,.18.02.2.13Z"/>
      <path d="M52.16,15.56c-.68,0-1.39-.04-2-.04-.13,0-.24-.04-.31-.18-.84-2.09-2.02-4.49-3.04-6.89-.53.75-1.01,1.41-1.61,2.16-.04,2.82.02,3.87.07,4.73,0,.09-.02.13-.09.13-.73.04-2.42.04-3.21.04-.04,0-.07-.02-.07-.07,0-4.66.24-10.1.13-15.14,0-.18.02-.24.18-.24.95-.04,1.89-.07,2.93,0,.2.02.22.04.22.42,0,1.03,0,2.51-.07,5.81,1.78-2.44,2.99-4.09,4.18-5.92.13-.2.24-.33.44-.33,1.03,0,2.16-.04,3.15,0,.35.02.37.09.29.22-.68,1.01-2.57,3.34-4.31,5.63,1.74,3.61,3.61,7.5,4.36,9.44.04.11.04.15-.11.18-.37.02-.75.04-1.12.04Z"/>
      <path d="M55.61,15.51c-.15,0-.2-.04-.2-.15.04-1.76.07-3.65.07-5.57,0-3.19-.07-6.47-.15-9.46,0-.13.07-.24.15-.24,1.06-.04,1.83-.07,2.97-.07.15,0,.24.04.24.4,0,.68.04,1.61.04,3.43,0,2.55-.04,7.13-.09,8.63.95.02,1.85.04,2.82.04.86,0,1.8-.02,2.93-.09.18-.02.24.04.24.15,0,1.03.02,1.58.02,2.71,0,.13-.04.2-.4.2-1.72,0-3.21-.07-3.89-.07-1.36,0-3.98.09-4.75.09Z"/>
      <path d="M71.54,15.53c-.79,0-2.44-.02-3.15-.07-.09,0-.11-.04-.11-.13.09-1.63.09-2.62.09-3.46,0-1.03-.04-1.76-.07-2.99-1.28-2.33-3.28-6.42-4.42-8.65-.07-.11-.04-.22.09-.22.31,0,.64-.02.9-.02.79,0,1.47.07,2.18.07.2,0,.26.09.33.22,1.14,2.27,1.83,3.83,2.64,5.7.75-1.89,1.45-3.37,2.62-5.59.11-.2.22-.26.48-.26.86,0,1.69-.04,2.79-.04.13,0,.18.09.04.33-1.36,2.55-2.97,5.85-4.4,8.36-.04,1.56-.04,2.42-.02,3.17.02.73.07,1.76.07,3.52,0,.04-.02.07-.07.07Z"/>
    </g>
  </g>
</svg>